<?xml version="1.0" encoding="UTF-8"?><svg id="Layer_2" xmlns="http://www.w3.org/2000/svg" viewBox="0 0 50.28 123.22"><defs><style>.cls-1{fill:#ffe4a1;fill-rule:evenodd;stroke-width:0px;}</style></defs><g id="OBJECTS"><path class="cls-1" d="m26.68,14.57C21.16,10.46,15.41,4.22,5.63,0c7.16.05,18.42,5.33,21.05,14.57h0Z"/><path class="cls-1" d="m20.32,15.9c1.16.61,2.02,1,2.98,1.27,1.79.51,3.29.65,4.84,1.26,1.24.48,2.24,1.2,3.12,2.07.8.79,1.39,1.51,1.85,2.28.92,1.55,1.71,3.96,1.7,5.77-.73-.87-1.38-1.53-2.08-2.13-1.07-.91-2.13-1.56-3.28-2.12-.84-.41-1.58-.79-2.27-1.21-3.03-1.8-4.8-4.44-6.85-7.2h0Z"/><path class="cls-1" d="m34.83,28.6c0-2.63-2.1-7.12-3.31-8.82-.86-1.21-1.49-2.57-2.07-3.98-1.04-2.5-1.93-5.36-2.21-7.53,1.32.94,2.63,1.86,4.12,3.17,3.11,2.95,4.85,6.11,4.44,10.45-.16,1.64-.21,5.23-.96,6.71h0Z"/><path class="cls-1" d="m29.32,29.05c1.02.82,1.78,1.37,2.68,1.83,1.66.85,3.1,1.29,4.5,2.18,1.12.72,1.96,1.62,2.65,2.64.63.93,1.07,1.75,1.37,2.59.6,1.7.91,4.22.54,5.99-.54-.99-1.05-1.77-1.62-2.49-.87-1.11-1.78-1.94-2.8-2.72-.74-.57-1.39-1.09-1.99-1.62-2.62-2.36-3.85-5.29-5.32-8.39h0Z"/><path class="cls-1" d="m41.07,44.35c.52-2.58-.67-7.4-1.53-9.29-.61-1.35-.96-2.81-1.26-4.31-.53-2.65-.84-5.63-.7-7.81,1.11,1.18,2.22,2.33,3.42,3.91,2.47,3.5,3.56,6.95,2.32,11.12-.47,1.58-1.23,5.09-2.25,6.39h0Z"/><path class="cls-1" d="m34.73,42.23c.83,1.2,1.47,2.03,2.27,2.79,1.5,1.43,2.89,2.35,4.1,3.74.97,1.12,1.58,2.34,1.99,3.65.37,1.19.58,2.2.63,3.19.1,1.99-.37,4.78-1.32,6.55-.26-1.23-.56-2.22-.94-3.17-.58-1.45-1.28-2.63-2.12-3.78-.61-.84-1.14-1.6-1.61-2.36-2.04-3.34-2.42-6.85-3-10.62h0Z"/><path class="cls-1" d="m42.39,62.23c1.37-2.58,1.63-8.08,1.32-10.38-.22-1.63-.13-3.3.03-4.99.28-2.99.89-6.26,1.73-8.54.81,1.61,1.62,3.18,2.4,5.25,1.53,4.51,1.59,8.52-1.05,12.57-1,1.53-2.92,5.03-4.42,6.09h0Z"/><path class="cls-1" d="m37.24,57.73c.57,1.38,1.04,2.34,1.68,3.28,1.2,1.75,2.4,2.97,3.3,4.62.73,1.33,1.08,2.68,1.21,4.07.12,1.27.11,2.32-.05,3.33-.32,2.02-1.39,4.71-2.72,6.28,0-1.29-.09-2.34-.26-3.37-.27-1.58-.72-2.91-1.32-4.24-.43-.97-.8-1.84-1.1-2.7-1.33-3.78-.96-7.37-.74-11.27h0Z"/><path class="cls-1" d="m40.65,79.38c1.92-2.29,3.35-7.75,3.53-10.11.13-1.68.57-3.33,1.09-4.99.91-2.94,2.22-6.08,3.55-8.18.47,1.78.94,3.53,1.28,5.77.57,4.84-.22,8.87-3.73,12.36-1.33,1.32-3.99,4.41-5.72,5.15h0Z"/><path class="cls-1" d="m36.97,72.54c.14,1.6.31,2.74.67,3.92.67,2.19,1.51,3.83,1.92,5.82.32,1.6.25,3.11-.06,4.59-.28,1.35-.63,2.43-1.12,3.42-.98,1.97-2.95,4.4-4.82,5.59.42-1.33.67-2.44.81-3.56.23-1.71.19-3.23,0-4.79-.13-1.14-.23-2.15-.27-3.14-.15-4.32,1.38-7.9,2.86-11.85h0Z"/><path class="cls-1" d="m33.51,95.93c2.72-1.74,5.95-6.9,6.89-9.27.67-1.7,1.66-3.24,2.73-4.79,1.89-2.73,4.24-5.54,6.29-7.28-.09,1.99-.16,3.94-.54,6.35-.97,5.16-3.08,9.06-7.82,11.53-1.79.93-5.53,3.26-7.55,3.47h0Z"/><path class="cls-1" d="m31.87,87.3c-.4,1.76-.61,3.04-.63,4.41-.04,2.56.3,4.6.05,6.87-.2,1.82-.8,3.4-1.64,4.87-.76,1.34-1.51,2.37-2.37,3.26-1.72,1.77-4.65,3.68-7.05,4.3.9-1.27,1.55-2.38,2.09-3.52.83-1.75,1.31-3.38,1.65-5.1.25-1.26.49-2.38.79-3.44,1.32-4.66,4.18-7.95,7.11-11.65h0Z"/><path class="cls-1" d="m20.17,111.06c3.5-.92,8.7-5.31,10.52-7.53,1.3-1.57,2.88-2.89,4.55-4.17,2.95-2.27,6.43-4.46,9.2-5.61-.78,2.08-1.53,4.15-2.75,6.59-2.81,5.17-6.39,8.61-12.29,9.61-2.23.38-7.01,1.58-9.24,1.1h0Z"/><path class="cls-1" d="m21.19,101.15c-1.07,1.62-1.77,2.82-2.3,4.19-.99,2.55-1.4,4.71-2.51,6.89-.89,1.75-2.11,3.12-3.54,4.29-1.3,1.07-2.47,1.84-3.71,2.42-2.48,1.15-6.27,2.03-9.04,1.79,1.42-.95,2.51-1.83,3.51-2.77,1.53-1.45,2.64-2.91,3.64-4.52.73-1.17,1.4-2.2,2.11-3.16,3.12-4.19,7.37-6.46,11.83-9.12h0Z"/><path class="cls-1" d="m0,120.75c4.03.32,11.15-2.22,13.89-3.78,1.95-1.11,4.11-1.86,6.35-2.55,3.95-1.22,8.43-2.17,11.79-2.33-1.6,1.81-3.15,3.6-5.35,5.61-4.89,4.18-9.94,6.34-16.53,5.23-2.49-.42-7.98-.92-10.15-2.19h0Z"/></g></svg>