<svg width="193" height="193" viewBox="0 0 193 193" fill="none" xmlns="http://www.w3.org/2000/svg">
<path d="M92.2809 192.752C90.9409 192.632 89.6109 192.502 88.2709 192.402C79.4009 191.752 70.8409 189.732 62.5209 186.652C59.8909 185.682 58.2509 183.862 57.3909 181.192C54.3509 171.692 52.1109 162.022 50.8009 152.122C49.9409 145.612 49.5209 139.082 49.3609 132.522C49.3409 131.582 49.5009 130.772 50.4909 130.372C51.4709 129.972 52.0909 130.522 52.7109 131.142C70.2309 148.792 90.6709 161.892 114.041 170.402C122.911 173.632 131.991 176.082 141.291 177.702C142.191 177.862 142.931 178.242 143.091 179.222C143.261 180.212 142.681 180.772 141.861 181.212C133.181 185.872 124.071 189.312 114.351 191.082C109.961 191.882 105.561 192.422 101.111 192.602C100.801 192.612 100.501 192.702 100.191 192.752H92.2809Z" fill="white"/>
<path d="M52.501 108.682C53.221 103.212 53.821 97.7317 54.681 92.2817C55.881 84.7617 57.781 77.4017 60.061 70.1317C60.851 67.6117 62.341 65.8317 64.731 64.6817C76.661 58.9617 89.081 54.7117 102.051 52.1117C104.081 51.7017 105.991 52.2717 107.641 53.5117C111.431 56.3517 115.281 59.1217 118.961 62.0917C125.421 67.3117 131.301 73.1417 136.851 79.3117C138.661 81.3317 139.391 83.6317 139.071 86.3117C138.531 90.8217 138.131 95.3517 137.471 99.8517C136.221 108.292 134.181 116.552 131.531 124.652C130.831 126.802 129.421 128.312 127.391 129.282C116.051 134.752 104.271 138.952 91.931 141.532C91.051 141.712 90.171 141.962 89.281 142.072C87.421 142.292 85.751 141.712 84.231 140.662C73.991 133.582 64.671 125.462 56.291 116.242C55.761 115.662 55.241 115.072 54.721 114.492C53.241 112.842 52.631 110.902 52.501 108.682Z" fill="white"/>
<path d="M1.12109 110.752C1.12109 108.502 1.95109 106.792 3.29109 105.292C9.64109 98.2218 16.5311 91.7318 23.9911 85.8518C29.6211 81.4218 35.5211 77.4118 41.6711 73.7418C42.9411 72.9818 44.1311 73.2918 44.4911 74.5318C44.5911 74.8918 44.5311 75.3318 44.4511 75.7118C43.3011 80.9318 41.9211 86.1218 41.0211 91.3818C40.0911 96.8418 39.4111 102.362 39.0111 107.892C38.6111 113.482 38.5911 119.112 38.6211 124.732C38.6611 131.072 39.3311 137.372 40.2411 143.652C41.8411 154.782 44.5711 165.622 48.3811 176.192C48.6811 177.032 48.7011 177.802 47.9611 178.412C47.1811 179.062 46.4111 178.862 45.6311 178.372C23.7711 164.822 9.88109 145.382 3.09109 120.732C2.26109 117.732 1.80109 114.642 1.19109 111.582C1.12109 111.242 1.14109 110.892 1.13109 110.752H1.12109Z" fill="white"/>
<path d="M191.351 81.9418C191.351 84.2218 190.521 85.9418 189.171 87.4318C177.961 99.9218 165.141 110.462 150.701 119.032C149.991 119.452 149.281 119.582 148.591 119.072C147.881 118.542 147.751 117.842 147.991 116.982C149.721 110.662 151.191 104.292 152.041 97.7918C152.721 92.5418 153.321 87.2718 153.641 81.9918C153.931 77.2018 153.921 72.3918 153.841 67.5918C153.711 60.2418 152.921 52.9518 151.711 45.7018C150.061 35.7718 147.541 26.0618 144.101 16.5918C143.791 15.7318 143.721 14.9218 144.511 14.2818C145.341 13.6118 146.121 13.9018 146.931 14.4018C168.711 27.9318 182.571 47.3218 189.351 71.9018C190.181 74.9318 190.651 78.0518 191.281 81.1418C191.351 81.4818 191.331 81.8318 191.341 81.9418H191.351Z" fill="white"/>
<path d="M192.471 101.272C192.011 109.222 190.801 117.042 188.361 124.632C182.631 142.482 172.821 157.652 158.481 169.822C158.241 170.022 158.001 170.232 157.771 170.442C155.561 172.452 153.021 173.042 150.101 172.412C133.801 168.902 118.361 163.102 103.831 154.922C103.071 154.492 102.631 153.922 102.761 153.022C102.901 152.052 103.601 151.712 104.441 151.492C114.851 148.762 124.911 145.062 134.601 140.362C153.791 131.052 170.561 118.512 184.941 102.762C186.401 101.162 187.811 99.5217 189.211 97.8717C189.801 97.1717 190.481 96.8217 191.351 97.1417C192.231 97.4617 192.511 98.2017 192.471 99.1017C192.441 99.8217 192.471 100.542 192.471 101.262V101.272Z" fill="white"/>
<path d="M97.111 0.00175931C107.641 -0.0682407 118.701 1.95176 129.441 5.86176C132.431 6.95176 134.281 8.86176 135.231 11.8818C138.091 21.0118 140.281 30.2918 141.591 39.7618C142.531 46.5718 142.991 53.4218 143.131 60.3018C143.151 61.1918 142.951 61.9518 142.071 62.3118C141.211 62.6718 140.521 62.3418 139.881 61.6918C127.951 49.5818 114.461 39.5518 99.431 31.6018C86.441 24.7318 72.771 19.6718 58.431 16.4518C55.991 15.9018 53.531 15.4218 51.071 14.9618C50.161 14.7918 49.541 14.3618 49.391 13.4518C49.251 12.5618 49.741 11.9818 50.501 11.5718C58.531 7.26176 66.931 3.95176 75.891 2.08176C82.601 0.681759 89.361 0.00175931 97.111 0.00175931Z" fill="white"/>
<path d="M0.000930302 91.4718C0.46093 83.2318 1.75093 75.1418 4.34093 67.3018C10.2909 49.3118 20.3809 34.1018 35.0309 21.9818C37.1709 20.2118 39.5409 19.6818 42.2409 20.2618C58.5109 23.7618 73.9309 29.5318 88.4509 37.6718C89.2509 38.1218 89.8409 38.6518 89.7109 39.6518C89.5809 40.6118 88.9109 40.9618 88.0509 41.1918C71.7709 45.4818 56.4709 52.0618 42.1909 61.0018C27.5009 70.1918 14.5609 81.4118 3.39093 94.6618C2.80093 95.3618 2.17093 95.9418 1.14093 95.5718C0.28093 95.2518 -0.0190697 94.6718 0.000930302 93.3518C0.000930302 92.7218 0.000930302 92.1018 0.000930302 91.4718Z" fill="white"/>
</svg>
