<?xml version="1.0" encoding="UTF-8"?><svg id="Layer_2" xmlns="http://www.w3.org/2000/svg" viewBox="0 0 956.26 1180.33"><defs><style>.cls-1{fill:#f7f7f7;}.cls-1,.cls-2,.cls-3,.cls-4,.cls-5,.cls-6,.cls-7,.cls-8,.cls-9,.cls-10,.cls-11,.cls-12{stroke-width:0px;}.cls-2{fill:#625243;}.cls-3{fill:#5f3106;}.cls-4{fill:#2a2a2a;}.cls-5{fill:#b69f8a;}.cls-6{fill:#8e6e50;}.cls-7{fill:#fdfdfd;}.cls-8{fill:#ff6200;}.cls-9{fill:#e6ddd5;}.cls-10{fill:#fefdfd;}.cls-11{fill:#fbfbfb;}.cls-12{fill:#fefefe;}</style></defs><g id="Layer_1-2"><g id="T7HXBx"><path class="cls-4" d="m698.32,513.6c-.64,11.06-5.12,21-9.11,31.08-2.45,7.65-7.54,13.65-12.63,19.57-2.5,2.9-3.95,6-4.62,9.72-8.75,48.65-16.77,97.42-25.17,146.13-8.34,48.38-15.7,96.92-22.53,145.53-5.14,36.58-9.57,73.25-13.15,110-2.64,27.12-5.28,54.27-6.43,81.53-.52,12.45-1.65,24.87-1.86,37.34-.04,2.16-.04,4.37-1.81,6.03-1.32,1.76-2.59,2.34-3.77-.12-2.2-3.18-1.58-6.82-1.1-10.16,1.41-9.93.8-19.93,1.57-29.89,1.19-15.58,2.17-31.18,3.47-46.76,1.86-22.38,4.14-44.72,6.56-67.05,4.45-41.05,10.05-81.94,15.97-122.79,11.44-78.93,26.04-157.33,39.3-235.96.71-4.2,1.75-8.35,2.23-13.18-7.99,5.2-15.43,10.18-23.65,13.8-3.03,1.34-3.32,4.33-3.8,7.14-5.53,32.49-11.13,64.98-16.77,97.45-9.46,54.46-17.92,109.07-25.59,163.81-5.52,39.39-10.28,78.89-14.28,118.46-2.71,26.8-5.1,53.64-6.4,80.56-.63,12.95-1.86,25.87-1.91,38.85,0,1.33-.15,2.66-.62,3.93-2.84,3.56-3.51,3.58-5.93.18-.65-9.48.46-18.94.97-28.37.7-12.93,1.52-25.88,2.51-38.81,2.05-26.7,4.65-53.35,7.33-80,4.28-42.57,10.3-84.91,16.36-127.25,8.76-61.31,19.25-122.33,29.9-183.33,2.52-14.43,4.96-28.87,7.44-43.31.82-4.77.57-4.99-4.1-3.71-4.49,1.24-8.98,2.62-13.58,3.29-4.73.69-6.68,3.17-7.45,7.8-4.75,28.57-9.61,57.13-14.57,85.66-9.5,54.62-18.01,109.38-25.69,164.28-5.72,40.88-10.58,81.85-14.62,122.93-2.51,25.49-4.65,51-6.02,76.58-.68,12.78-1.76,25.54-1.86,38.35-.01,1.5-.08,3-.56,4.45-2.71,3.7-3.1,3.71-5.88.21-1-9.98.4-19.92.89-29.85.64-12.94,1.49-25.89,2.49-38.82,1.6-20.73,3.45-41.44,5.44-62.13,3.8-39.44,8.98-78.71,14.42-117.94,6.49-46.84,13.8-93.55,21.73-140.16,5.87-34.46,11.85-68.91,17.87-103.35.95-5.42.42-6.12-4.8-5.32-3.81.59-7.63.74-11.45.61-3.64-.13-5.42,1.43-6.07,5.04-6.06,33.75-13.52,67.22-19.11,101.07-11.45,69.32-22.17,138.74-30.49,208.51-3.31,27.75-6.25,55.55-8.55,83.41-2.15,26.02-4.35,52.02-4.98,78.14-.16,6.77-2.18,13.54.53,20.22,1.34,4.48-.16,8.92-.2,13.37-.13,16.14-1.75,32.23-1.16,48.39.21,5.85.43,6.35,6.28,6.22,18.81-.4,37.58.65,56.37,1.01,6.6.12,6.51-.04,7.49-6.36.96-6.13.28-12.31.71-18.44.95-13.58.39-27.27,2.65-40.77,1.48-1.94,2.9-2.27,4.23.15-.46,10.47-.72,20.95-1.48,31.39-.31,4.24,1.27,5.19,5.11,5.57,18.45,1.82,33.73,14.55,38.27,31.5.09.32.27.61.34.93,2.13,9.41,1.3,10.45-8.13,10.36-37.58-.39-75.16-.87-112.73-1.03-4.6-.02-5.15-1.38-5.06-5.53.55-23.78,1.31-47.55,2.5-71.3.13-2.58-.15-4.79-2.23-6.5-1.75-2.54-1.37-5.4-1.18-8.22,1.11-16.41,1.66-32.86,2.86-49.27,1.24-16.91,2.57-33.82,4.14-50.71,2.39-25.67,5.08-51.32,8.09-76.91,3.66-31.06,7.9-62.06,12.48-93.01,5.64-38.2,11.74-76.32,18.05-114.41.74-4.44,2.09-8.72,2.93-13.11.35-1.51,1.12-2.92,1.21-4.5.38-1.4.72-2.81.93-3.34-.06.41-.51,1.62-.93,2.85.03,1.46-.64,2.74-1.05,4.08-4.6,15.97-11.37,31.02-19.3,45.58-.84,1.16-1.6,2.4-2.92,3.11-24.2,45.94-58.95,80.9-106.59,102.46-18.52,8.38-38.07,12.87-58.15,15.17-21.18,2.43-42.4,3.51-63.77,2.34-39.8-2.18-78.41-9.86-116-23.07-34.35-12.07-66.85-27.85-97.55-47.42-2.83-1.8-3.58-3.02-1.41-5.94,3.36-4.53,6.23-9.43,9.4-14.1,1.06-1.57,1.56-2.56-.47-3.94-9.35-6.36-18.6-12.86-27.8-19.43-1.82-1.3-2.82-1.47-4.43.42-16.41,19.35-44.53,20.19-64.28.14-1.84-1.87-2.4-2.94-.14-5.06,29.18-27.3,58.28-54.67,87.3-82.13,2.17-2.06,3.26-1.54,5.13.21,14.64,13.63,30.23,26.06,46.82,37.26,2.76,1.86,4.23,2.07,6.02-1.16,1.9-3.43,3.53-8.64,6.82-9.24,2.82-.52,6.49,3.36,9.74,5.37,35.79,22.09,74.39,36.98,115.89,43.66,27.01,4.35,54.23,5.78,81.45.73,20.95-3.89,37.32-14.79,50.52-31.3,19.48-24.37,29.82-52.72,37.35-82.47,7.78-30.75,11.83-62.02,14.02-93.59.25-3.67-.71-4.62-4.35-5.1-35.61-4.7-62.88-22.43-80.82-53.61-11.96-20.78-14.55-43.64-12.18-67.14,4.38-43.37,22.92-81.59,43.72-118.94,8.5-15.26,17.75-30.08,27.38-44.64,10.53-15.93,25.41-24.95,44.37-27.21,34.24-2.96,64.03,21.05,69.04,55.17,2.32,15.84-1.32,30.1-9.89,43.21-14.69,22.46-28.28,45.51-39.1,70.12-2.15,4.88-3.99,9.88-5.73,14.9-1.37,3.96-.91,4.45,3.16,3.96,12.08-1.43,24.05-3.58,35.79-6.69,16.56-4.39,33.06-9.05,49.15-15.02,3.83-1.42,5.44-3.72,5.93-7.63,4-32.02,8.25-64.01,12.69-95.98,1.09-7.82-1.14-12.63-7.74-16.74-2.23-1.39-3.67-.37-5.3.98-6.07,5-8.76,5.39-15.05,1.15-14.65-9.88-25-23.25-31.22-39.78-1.05-2.79-2.03-5.73-.11-8.62.41-.6.82-1.21,1.24-1.81,2.39-.3,2.88,1.51,2.95,3.12.36,8.6,4.68,15.57,9.46,22.14,5.66,7.78,11.84,15.19,20.08,20.55,3.64,2.37,6.39,2.27,9.51-1.11,5.76-6.21,11.85-12.12,17.93-18.01,4.28-4.14,5.77-4.18,9.94.11,5.91,6.08,12.26,11.68,18.49,17.42,3.4,3.14,4.85,3.06,7.29-1.04,6.89-11.57,11.04-24.12,12.92-37.43.3-2.1.04-4.42,2.44-5.58.64.56,1.28,1.11,1.92,1.67,1.45,1.93,1.17,4.08.78,6.23-2.31,12.53-6.21,24.52-12.33,35.73-.8,1.46-1.65,2.89-2.7,4.19-3.75,4.65-7.8,5.34-12.46,1.65-2.64-2.09-4.36-1.77-6.91.23-5.97,4.69-7.58,10.11-6.61,17.83,2.71,21.61,4.48,43.34,6.55,65.03.74,7.78,1.56,15.56,2.3,23.34.53,5.56,1.39,5.88,6.61,3.53,7.58-3.42,15.34-6.43,23.81-10.01-3.15-1.27-5.79-2.04-8.24-3.2-6.04-2.87-9.69-7.67-10.83-14.09-1.37-7.7-2.18-15.47-.93-23.34.98-6.11.25-12.3.44-18.45.19-5.93,1.09-6.94,7.12-6.97,19.14-.09,38.29-.08,57.43,0,6.1.02,7.08.97,7.14,6.89.11,10.65.34,21.32-.07,31.96-.37,9.55-2.48,18.59-11.28,24.35-2.72,1.78-2.66,4.22-1.3,6.52,1.41,2.39,3.27.38,4.76-.23,5.7-2.33,11.27-4.97,16.93-7.4,3.25-1.4,6.6-2.6,10.15-1.96,3.19.57,4.13-.52,4.05-3.62-.17-6.49-.08-12.99-.05-19.48.09-17.97.24-35.94-.15-53.9-.48-22.07-10.11-39.64-27.96-52.67-1.99-1.46-4.39-2.45-5.62-4.82-.06-1.02.18-1.72,1.42-1.36,15.49,5.33,28.62,14.51,41.26,24.68,18.66,15.02,34.06,33.18,49.94,50.89,6.78,7.56,13.33,15.32,20.75,22.28,4.88,4.58,4.84,4.55,6.53-1.69,7.67-28.3,9.79-57.3,11.04-86.42.31-7.32.65-14.64.69-21.96.01-3.17.88-4.7,4.21-3.99,4.15.88,4.92-1.18,5.01-4.9.47-21.32-.86-42.6-.92-63.91-.03-10.61,3.82-14.71,14.5-14.79,1.89-.02,2.32-.59,2.25-2.2-.05-1.16,0-2.33,0-3.5,0-34.96.06-69.93-.09-104.89-.02-3.85.89-4.98,4.88-4.96,30.96.18,61.92.18,92.88,0,4.07-.02,4.84,1.23,4.83,5-.12,52.11-.13,104.22.01,156.34.01,3.99-.71,6.01-5.04,5.14-4.89-.98-6.15,1.1-5.89,5.86.43,7.97.23,15.98.07,23.97-.06,3.01.44,4.9,4,4.21,3.22-.62,3.76.86,3.68,3.84-1.11,41.96-3.08,83.85-12.22,124.98-5.9,26.6-14.76,52.03-30.63,74.71-27.77,39.7-77.72,55.58-123.22,38.76-10.02-3.71-19.61-8.24-28.61-13.97-2.11-1.34-3.21-1.75-4.91.93-3.82,6.06-10.39,8.52-16.63,11.28-1.65.73-3.28,1.51-4.92,2.26-1.24,1.97-3.33,2.65-5.3,3.52-23.27,10.3-46.63,20.39-70.46,29.36-3.38,1.27-5.94,2.49-4.7,7.1.89,3.29-2.46,3.86-4.7,4.71-10.26,3.91-20.68,7.36-31.12,10.76-2.98.97-4.83,2.44-4.94,5.93-.2,6.4.32,7.12,6.88,7.12,24.62.02,49.24-.02,73.85.05,2.36,0,5.08-.82,6.87,1.71Z"/><path class="cls-8" d="m571.02,1098.55c1.58-44.09,4.89-88.06,9.55-131.92,5.89-55.41,13.2-110.63,21.45-165.74,10.34-69.06,22.88-137.76,34.37-206.62.69-4.15,2.26-6.55,6.4-8.2,8.78-3.5,16.53-9,24.67-15.08-2.94,17.09-5.77,33.45-8.57,49.81-8.99,52.43-18.36,104.8-26.7,157.34-7.25,45.66-13.87,91.41-19.45,137.3-4.2,34.51-7.77,69.1-10.53,103.77-2.15,27.05-3.71,54.12-4.97,81.21-2.15.18-4.34-.85-6.47.18-1.01-.81-2.16-.91-3.37-.61-5.63,1.47-11.27,3.12-16.37-1.42Z"/><path class="cls-8" d="m697.28,216.45c21.71,12.54,33.64,31.29,34.62,56.37.56,14.28-.04,28.61-.08,42.92-.03,12.6,0,25.21,0,38.26-5.82-2.8-10.95-1.35-16.08,1.01-7.33,3.37-14.74,6.57-22.31,9.92-.78-2.99.13-5.59-1.19-7.89-.71-1.24-.25-2.09,1.11-2.72,9.88-4.61,12.22-13.67,12.64-23.19.52-11.95.02-23.95.09-35.92.01-2.3-.93-2.78-2.95-2.77-21.13.04-42.26.05-63.38,0-2.14,0-3.01.69-2.83,2.87,1.03,12.96-1.14,25.93.1,38.9,1.24,13.02,5.88,18.4,18.54,21.11,1.26.27,2.71.05,3.8,1.68-11.48,4.84-22.88,9.64-34.83,14.68-1.29-12.66-2.55-24.82-3.75-36.98-2.16-21.84-4.2-43.69-6.48-65.51-.4-3.8.23-6.75,3.42-9.01.94-.66,1.67-1.61,2.5-2.43,5.31-5.22,5.35-5.28,11.18-.72,3.14,2.45,5.87,1.82,8.36-.8,2.42-2.55,4.16-5.59,5.68-8.75,5.81-12.08,9.9-24.65,11.01-38.08,5.41,0,10.83.15,16.24-.02,6.15-.19,11.66,2.03,17.26,4.05,1.46-.51,2.68.43,4.02.66,1.31.51,2.56,1.11,3.33,2.37Z"/><path class="cls-8" d="m542.27,209.38c0,6,2.12,11.36,4.92,16.53,6.68,12.32,15.29,22.95,27.05,30.78,6.48,4.32,8.84,4.16,14.14-1.52,2.61-2.8,3.94-2.63,6.99-.17,7.04,5.67,8.8,11.79,7.37,20.98-4.86,31.18-8.55,62.54-12.57,93.85-.49,3.8-1.9,5.93-5.81,7.27-25.34,8.68-50.9,16.5-77.39,20.83-4.85.79-9.77,1.85-15.03,1.35,3.36-11.94,8.15-23.05,13.5-33.93,9.64-19.57,20.38-38.54,32.79-56.47,27.66-40-1.86-90.79-41.66-98.01-5.29-.96-10.6-.47-15.91-.53,3.32-1.49,6.85-.93,10.28-.94,17.11-.08,34.22-.02,51.33-.01Z"/><path class="cls-8" d="m601.01,1100.53c1.85-52.23,6.3-104.24,12.03-156.18,7.92-71.74,18.65-143.07,30.49-214.24,8.86-53.27,18.39-106.44,27.59-159.65.28-1.64.27-3.4,1.6-4.6,6.75-6.08,11.25-13.91,16.48-21.17-2.49,15.24-4.92,30.49-7.47,45.72-8.14,48.67-16.39,97.33-24.48,146.01-6.24,37.54-12.58,75.07-18.35,112.68-5.52,35.98-10.04,72.1-13.74,108.33-4.74,46.35-7.47,92.84-9.95,139.35-.16,2.98-.67,4.68-4.26,4.17-3.28-.46-6.64-.3-9.97-.41Z"/><path class="cls-4" d="m658.45,113.19c6.1,2.43,9.03,7.26,9.31,13.5.29,6.38-2.78,11.2-8.57,13.96-2.12,1.01-3.03,2.45-3.97,4.53-3.9,8.62-9.2,16.14-18.09,20.4-5.38,2.58-1.83,7.29-2.64,10.97,2.78,12.14,1.74,23.67-7.04,33.13-8.4,9.05-19.22,10.11-30.42,6.54-10.74-3.42-19.23-9.71-23.01-21.02-3.23-9.67.15-18.22,4.25-26.69.07-.15.15-.3.19-.46,1.08-3.83,2.94-7.64,3.01-11.49.08-4.32-5.01-5-7.66-7.43-17.57-16.09-21.55-41.38-9.33-61.79,1.41-2.36,2.27-3.52-1.11-5.32-11.72-6.25-16.45-19.26-12.03-31.51,4.21-11.68,16.42-18.73,28.62-16.53,12.55,2.27,21.45,13.13,21.13,26.38-.07,3.1.82,3.49,3.48,3.33,8.3-.51,16.21,1.25,23.59,5.04,2.23,1.15,4.48,1.01,6.78,1.04,18.97.18,32.57,15.03,30.95,33.82-.09,1.09.27,2.85-1.47,2.48-5-1.06-4.85,3.27-6.44,5.79-1.7-.22-2.36-1.66-3.28-2.8-5.2-6.39-10.56-7.63-17.91-4.08-1.64.79-3.19,1.76-5.06,1.92-2.88.2-5.76.19-8.63.03-1.89-.12-3.53-.94-5.09-1.91-4.11-2.55-8.64-1.94-13.11-1.8-1.26-.49-2.96-1.68-1.99,1.3-.87,1.99-2.78,3.29-3.6,5.25-1.83,4.37-4.91,5.86-9.44,4.6-2.14-.6-3.81.42-5.37,1.74-1.2.67-2.55.66-3.87.86-4.92.78-8.78,4.58-9.24,9.07-.47,4.53,2.44,9.52,7.17,10.77,3.96,1.05,5.35,3.35,6.7,6.96,7.4,19.77,33.39,29.79,53.5,14.97,10.58-7.79,14.78-18.42,14.37-31.22.48-2.16,1.4-3.93,3.9-4.19,3.77,3.05,2.06,7.21,2.23,10.96,5.2-4.6,5.01-9.23-.71-16.22-1.04-1.6-1.69-3.21-.14-4.88Z"/><path class="cls-8" d="m555.57,689.09c-2.54,15.74-5.08,31.49-7.63,47.23-6.7,41.35-12.94,82.76-18.65,124.25-5.31,38.55-9.6,77.22-13.47,115.93-3.36,33.6-6,67.27-7.42,101.02-.26,6.15-.69,12.29-1.04,18.44-3.66-.13-7.31-.36-10.97-.34-2.25.01-2.77-.91-2.64-3,1.41-23.06,2.47-46.14,4.19-69.18,1.85-24.69,4.2-49.34,6.51-73.98,3.08-32.75,7.05-65.4,11.55-97.98,5.2-37.67,11.71-75.14,17.71-112.69.15-1.23-.05-2.53.66-3.66,7.66-14.93,14.13-30.39,20.11-46.05.37-.32.73-.34,1.08.01Z"/><path class="cls-8" d="m698.32,513.6c-27.79-.07-55.59-.25-83.38-.08-4.64.03-6.31-1.27-5.57-5.75.14-.81.15-1.68,0-2.49-.8-4.35.96-6.32,5.28-7.65,10.95-3.39,21.66-7.55,32.54-11.17,2.93-.98,4.3-2.05,2.47-5.06-1.6-2.64-.77-3.94,2.14-5,22.64-8.3,44.73-17.99,66.94-27.36,4.41-1.86,8.55-4.37,13.19-5.7.04,16.95.16,33.91.08,50.86-.06,13.18-6.19,19.16-19.25,19.22-4.82.02-9.63.13-14.45.2Z"/><path class="cls-8" d="m578.28,168.51c-.89,3.53-1.72,7.07-2.67,10.58-3.81,14.07,1.3,25.9,14.36,32.93,6.6,3.55,13.62,5.3,21.13,4.36,13.44-1.68,21.92-11.18,23.02-25.88.35-4.63.26-9.3.37-13.95,10.99,7.62,16.59,18.7,20.02,31.17-1.76,10.81-3.98,21.5-8.25,31.66-1.99,4.74-4.09,9.45-7.12,13.66-2.3,3.2-4.52,3.76-7.6.61-6.51-6.64-13.39-12.92-19.93-19.53-2.29-2.32-3.75-2.32-6.01.04-6.43,6.71-13.25,13.06-19.61,19.85-2.94,3.13-5.81,3.83-9.1,1.33-15.45-11.75-28.99-24.89-31.69-45.53-.15-1.13-.75-1.78-1.68-2.24.77-17.89,11.58-28.43,26.45-35.91,2.64-1.33,5.54-2.11,8.32-3.15Z"/><path class="cls-8" d="m584.24,115.58c.19-2.62,2.13-2.71,3.94-2.46,5.08.72,9.28.17,11.19-5.62.46-1.41,2.16-2.41,3.28-3.6.31-1.03,1.09-1.26,2.04-1.17,6.39-2.19,12.07-.66,17.26,3.35.68.07,1.28.39,1.62.94,2.44,3.91,4.87,3.6,7.38.06.37-.52,1.04-.75,1.63-1.01,10.84-7.47,18.73-5.67,25.42,5.79.15.45.3.89.45,1.34-.31,1.39-.4,2.77.36,4.07.84,2.36.37,4.36-1.61,5.95-1.02,1.42-2.04,2.83-3.06,4.25-6.01,7.48-13.2,5.93-20.59,2.34-.25,11.85-1.95,14.6-8.45,14.01-5.41-.49-6.69-3.7-5.09-13.71-4.7,2.68-9.39,3.72-14.27,1.81-4.71-1.85-8.37-4.94-9.92-9.87-.97-3.1-2.78-4.09-5.87-4.13-2.04-.03-4.88,1.02-5.72-2.32Z"/><path class="cls-2" d="m693.72,214.56c-1.26-.38-2.52-.76-3.79-1.14,2.5-1.92,4.36.31,6.45,1.01-.85.8-1.75.52-2.66.12Z"/><path class="cls-4" d="m693.72,214.56c.89-.04,1.77-.08,2.66-.12.7.31,1.41.62,2.11.93-.4.36-.81.72-1.21,1.09-1.19-.63-2.38-1.26-3.56-1.89Z"/><path class="cls-5" d="m534.38,735.13c.01,1.26.41,2.6-.66,3.66-.35-.23-.7-.46-1.05-.69.29-1.15.6-2.29,1.71-2.97Z"/><path class="cls-12" d="m857.15,83.67c0-25.12.08-50.25-.09-75.37-.02-3.63.72-4.71,4.56-4.69,28.94.18,57.89.16,86.83.02,3.4-.02,4.45.73,4.44,4.32-.13,50.25-.13,100.5,0,150.74.01,3.8-1.4,4.18-4.59,4.17-28.94-.11-57.89-.13-86.83.02-3.44.02-4.43-.8-4.4-4.34.16-24.96.09-49.91.09-74.87Z"/><path class="cls-8" d="m541.15,1097.59c1.13-35.93,3.69-71.76,6.99-107.55,2.66-28.82,5.64-57.6,9.35-86.29,4.78-36.93,9.95-73.8,15.42-110.63,9.14-61.48,20.27-122.64,30.53-183.94,1.91-11.42,1.84-11.35,13.13-14.03,5.48-1.3,10.86-3.01,17.09-4.76-29.54,168.66-59.05,337.11-66.37,508.42-1.8,1.59-4.03,1.47-6.16,1.39-6.74-.23-13.58.28-19.98-2.6Z"/><path class="cls-8" d="m513.44,1096.68c-2.42-.33-2.1-2.13-2.02-3.79,1.17-26.09,2.42-52.18,4.49-78.23,2.57-32.33,6.08-64.57,9.68-96.8,3.73-33.37,8.36-66.64,13.25-99.86,6.31-42.92,13.37-85.71,20.47-128.51,4.13-24.92,9.74-49.53,14.57-74.29.86-4.4,1.7-8.82,2.22-13.27.28-2.41,1.28-2.96,3.5-2.87,5.82.22,11.67.13,17.42-.82,4.03-.67,5.05.48,4.32,4.55-3.96,21.91-7.74,43.86-11.51,65.8-8.31,48.32-16.52,96.65-23.56,145.18-5.56,38.33-10.95,76.69-15.45,115.16-3.38,28.9-6.1,57.88-8.46,86.89-2.21,27.2-3.56,54.45-5.03,81.69-.36.33-.67.88-1.15.89-7.63.2-15.3.77-22.73-1.72Z"/><path class="cls-12" d="m751.95,423.92c-.2,2.63-1.46,4.69-3.31,6.51-3.15,3.12-7.09,5.03-11.06,6.62-28.65,11.54-56.68,24.59-85.5,35.74-4.16,1.61-5.38,1.06-6.9-3.05-10.55-28.56-21.36-57.03-32.23-85.48-1.07-2.79-1.42-4.11,2.04-5.31,19.32-6.66,37.73-15.57,56.65-23.23,1.85-.75,3.66-1.63,5.57-2.19,5.12-1.51,9.76.25,11.5,4.22,1.87,4.24.08,9.08-4.91,11.61-5.18,2.63-10.63,4.72-15.96,7.03-1.07.46-2.16.86-3.21,1.36-1.08.51-2.2,1.14-1.51,2.62.68,1.45,1.84,1.04,2.97.56,6.4-2.71,12.96-5.08,19.16-8.17,11.3-5.63,22.92-10.55,34.46-15.62,5.78-2.54,10.74-.97,12.93,3.6,2.15,4.48.04,9.12-5.92,11.91-10.93,5.11-21.99,9.94-32.95,15.01-1.42.66-4.29.96-3.09,3.49,1.22,2.56,3.23.45,4.68-.21,10.29-4.62,20.53-9.33,30.76-14.06,2.61-1.21,5.28-2.01,8.17-1.86,3.4.18,6.24,1.55,7.54,4.81,1.3,3.26.14,6.17-2.11,8.71-1.59,1.8-3.74,2.75-5.84,3.71-9.61,4.38-19.25,8.71-28.88,13.05-1.06.48-2.17.85-3.15,1.45-1.3.79-3.68,1.1-2.78,3.34,1.01,2.52,2.87.73,4.18.15,10.59-4.74,21.13-9.61,31.72-14.37,1.96-.88,4-1.79,6.1-2.09,3.88-.55,7.37.52,9.33,4.23,2.04,3.87.36,7.09-2.4,9.84-2.77,2.76-6.34,4.22-9.94,5.5-9.85,3.49-18.81,8.94-28.44,12.88-1.56.64-2.93,1.35-2.13,3.16.72,1.64,2.24.96,3.45.4,6.3-2.96,12.62-5.89,18.86-8.96,4.21-2.06,8.49-3.85,13.2-4.19,4.96-.35,8.97,2.98,8.95,7.29Z"/><path class="cls-12" d="m513.44,1096.68c7.96.28,15.93.55,23.89.83,1.23,2.08,2.49,2.44,3.82.08,8.71.4,17.43.81,26.14,1.21,1.46,3.2,2.62,1.8,3.73-.25,5.34,1.82,10.95.5,16.37,1.42-.91,21.43-1.89,42.86-2.65,64.3-.11,3.03-1.23,3.41-3.81,3.35-21.95-.5-43.9-.96-65.86-1.23-3.43-.04-4.09-1.18-3.96-4.38.89-21.77,1.58-43.56,2.34-65.33Z"/><path class="cls-12" d="m95.52,664.21c.63.51,1.28.98,1.87,1.53,13.24,12.18,27.54,23,42.61,32.81,2.03,1.32,2.2,2.24.88,4.25-12.42,18.87-24.77,37.79-37.04,56.76-1.3,2.02-2.23,2.26-4.23.94-18.46-12.21-35.99-25.61-52.5-40.36-1.72-1.54-2.02-2.44-.29-4.28,15.65-16.55,31.2-33.2,46.78-49.82.57-.6,1.2-1.15,1.9-1.83Z"/><path class="cls-12" d="m891.63,198.87c-15.46,0-30.91-.09-46.37.07-3.36.04-4.12-1.04-4.03-4.24.63-21.6.01-43.19-.81-64.78-.23-6.13,2.43-10.19,7.04-11.13,4.24-.86,6.25.7,6.26,5.03.03,12.8.15,25.61-.08,38.41-.06,3.58,1.03,4.34,4.44,4.32,26.44-.14,52.87,0,79.31-.16,3.59-.02,4.84.63,4.68,4.53-.36,8.3-.29,16.63-.02,24.94.12,3.6-.62,4.72-4.54,4.65-15.29-.29-30.58-.12-45.88-.12,0-.51,0-1.02,0-1.52Z"/><path class="cls-8" d="m639.54,315.42c0-5.65.09-11.3-.04-16.95-.06-2.35.21-3.64,3.11-3.63,19.11.11,38.22.07,57.33.03,2.12,0,3.33.29,3.31,2.94-.07,11.13.31,22.27.06,33.39-.16,7.11-1.99,13.86-7.83,18.72-2.52,2.09-4.94,3.31-8.44,1.06-4.2-2.7-8.86-1.86-13.39.03-3.47,1.45-6.77,3.26-10.91,2.83-17.74-1.84-22.86-7.15-23.35-24.95-.12-4.48-.02-8.97-.02-13.46.05,0,.11,0,.16,0Z"/><path class="cls-12" d="m14.72,750.27c8.93-9.57,17.55-18.75,26.09-28,1.36-1.48,2.22-1.29,3.62-.07,5.98,5.25,11.93,10.57,18.19,15.49,2.48,1.95,2.01,3.02.27,4.94-12.36,13.64-31.21,16.83-48.17,7.64Z"/><path class="cls-7" d="m92.89,661.08c-1.14,1.38-1.71,2.16-2.37,2.85-25.44,27.16-50.89,54.29-76.29,81.49-1.98,2.12-3.39,2.84-5.95.64-2.34-2-1.86-2.99.03-4.88,17.87-17.85,35.64-35.8,53.44-53.71,8.67-8.72,17.34-17.44,26.03-26.14.77-.77,1.38-2.07,2.8-1.61.78.25,1.45.83,2.31,1.34Z"/><path class="cls-7" d="m570.15,1175.47c-18.46,0-36.93.02-55.39-.02-1.92,0-4.33.93-4.16-2.89.17-3.64,2.37-2.89,4.41-2.85,36.92.72,73.84,1.47,110.76,2.18,2.29.04,4.39-.04,4.29,3.22-.11,3.47-2.65,1.8-4.01,1.8-18.63.11-37.26.07-55.9.07,0-.5,0-1.01,0-1.51Z"/><path class="cls-7" d="m602.48,1155.59c0,.66.01,1.33,0,1.99-.24,11.54-.23,11.46-11.86,10.18-2.09-.23-2.39-1.01-2.33-2.77.23-7.14.43-14.29.51-21.44.03-2.33.74-3.07,3.21-2.95,9.7.47,11,1.7,10.65,11-.05,1.33,0,2.66,0,3.99h-.17Z"/><path class="cls-7" d="m605.89,1144.3c11.74,5.17,19.44,12.41,22.95,23.83-6.99,0-13.58-.07-20.18.04-2.62.04-2.86-1.26-2.82-3.42.13-6.46.05-12.92.05-20.45Z"/><path class="cls-8" d="m566.49,513.4c12.71-3.96,25.21-8.28,37.83-12.18.47-.14,1.31-.36,1.41-.19,1.99,3.15.56,6.65.94,9.99.24,2.11-1.1,2.4-2.81,2.4-12.46-.03-24.91-.01-37.37-.01Z"/><path class="cls-3" d="m555.48,685.13c.37-1.36.75-2.73,1.22-4.46,1.12,1.85,1.02,3.18-.24,4.41-.3.47-.63.49-.98.05Z"/><path class="cls-8" d="m555.48,685.13c.32-.13.65-.14.98-.05-.11,1.38.2,2.85-.88,4.02h-1.08c.33-1.33.66-2.65.99-3.96Z"/><path class="cls-12" d="m584.24,115.58c2.67,2.1,5.77.68,8.66,1.03,1.47.18,2.68-.03,3.41,1.97,4.8,13.16,12.47,16.12,24.7,9.55,1.21,2.68-.29,5.11-.54,7.6-.22,2.16-.7,4.71,1.58,5.85,2.57,1.29,5.59,1.02,8.28.11,2.61-.88,2.27-3.42,2.08-5.55-.26-2.96-.74-5.9-1.28-10.1,7.88,6.66,15.43,7.14,23.04,1.44,1.66,18.37-10.24,34.63-28.52,38.97-16.71,3.97-35.88-5.8-41.61-22.18-1.44-4.12-3.19-5.36-6.78-6.48-5.16-1.61-7.96-6.92-7.26-12.25.68-5.21,4.97-9.38,10.29-9.92,1.31-.13,2.65-.02,3.98-.02Z"/><path class="cls-12" d="m585.82,154.91c8.51,10.01,18.38,15.48,30.8,15.76,3.85.09,7.69-.27,11.32-1.49,2.36-.79,2.95-.18,2.91,2.1-.11,5.82.03,11.66-.18,17.48-.76,21.11-16.66,28.17-34.51,22.16-8.05-2.71-13.94-8.22-17.25-16.26-1.58-3.83-1.91-7.53-.69-11.63,2.67-9.05,4.95-18.21,7.6-28.12Z"/><path class="cls-1" d="m657.2,123.22c.54-1.98,1.08-3.97,1.61-5.95,7.78,6.34,7.47,14.89-1.18,20.14.54-4.94,1.04-9.63-.43-14.19Z"/><path class="cls-9" d="m632.58,106.07c-.51.85-1,1.7-1.52,2.54-2.57,4.11-5.14,4.13-7.65.04-.52-.84-.97-1.72-1.45-2.58,3.54,0,7.08,0,10.63,0Z"/><path class="cls-11" d="m604.69,102.73c-.68.39-1.36.78-2.04,1.17.08-1-.68-2.03.07-3.01.66.61,1.31,1.23,1.97,1.84Z"/><path class="cls-10" d="m611.12,127.73c-6.26.1-11.63-5-11.67-11.09-.04-5.79,5.16-11.17,10.94-11.34,6.57-.19,11.91,4.92,11.85,11.35-.05,6.04-5.01,10.98-11.13,11.08Z"/><path class="cls-7" d="m645.48,106.47c.25.16.51.26.8.3,5.48,3.33,7.1,8.56,7.15,14.56-2.23,5.06-6.32,6.85-11.52,6.24-4.28-.51-7.56-2.53-8.57-7.12.26-.23.54-.39.86-.47,1.8-.44,4.61.1,4.28-2.89-.31-2.86-3-1.88-4.84-2.1-.33-.04-.66.03-.98.13-.21-4.33,2.35-6.81,5.82-8.68,2.33-.31,4.67-.99,7,.02Z"/><path class="cls-4" d="m632.67,115.13c1.94-2.09,4.17-2.71,6.44-.73,1.5,1.3,1.8,3.2.67,4.91-1.67,2.55-3.99,2.45-6.44,1.14-1.33-1.63-1.2-3.45-.68-5.32Z"/><path class="cls-4" d="m653.44,121.33c-1.88-5.1-3.32-10.42-7.15-14.56,7.06.38,10.04,6.45,7.15,14.56Z"/><path class="cls-6" d="m645.48,106.47c-2.33,0-4.67-.01-7-.02,2.34-.72,4.68-3.16,7,.02Z"/><path class="cls-4" d="m905.02,103.33c9.47,0,18.95-.04,28.42.05,1.24.01,3.31-1.01,3.48,1.45.2,2.98-2.21,1.84-3.54,1.85-18.95.07-37.89.07-56.84,0-1.22,0-3.31,1.05-3.48-1.42-.2-2.93,2.18-1.87,3.55-1.89,9.47-.08,18.95-.04,28.42-.04Z"/><path class="cls-4" d="m905,91.73c-9.64,0-19.28.02-28.92-.02-1.31,0-3.27.69-3.06-1.89.18-2.15,1.88-1.46,3.03-1.47,19.28-.04,38.56-.04,57.84-.01,1.35,0,3.25-.59,3.06,1.94-.17,2.2-1.91,1.41-3.03,1.42-9.64.06-19.28.03-28.92.03Z"/><path class="cls-4" d="m905.02,133.34c9.47,0,18.94-.04,28.41.05,1.23.01,3.31-1.02,3.48,1.44.2,2.97-2.22,1.84-3.55,1.84-18.94.07-37.89.07-56.83,0-1.22,0-3.32,1.05-3.48-1.42-.2-2.94,2.2-1.86,3.56-1.87,9.47-.09,18.94-.05,28.41-.05Z"/><path class="cls-4" d="m904.49,76.74c-9.47,0-18.95.03-28.42-.03-1.12,0-2.86.78-3.04-1.4-.21-2.5,1.66-1.97,3.04-1.97,19.28-.02,38.56-.02,57.85,0,1.37,0,3.25-.54,3.04,1.96-.18,2.19-1.92,1.4-3.04,1.41-9.81.06-19.61.03-29.42.03Z"/><path class="cls-4" d="m905.02,121.72c-9.64,0-19.28.02-28.91-.03-1.3,0-3.27.72-3.09-1.87.16-2.16,1.87-1.47,3.01-1.47,19.28-.04,38.55-.04,57.83,0,1.33,0,3.26-.65,3.09,1.9-.15,2.2-1.89,1.43-3.01,1.44-9.64.06-19.28.03-28.91.03Z"/><path class="cls-4" d="m904.57,61.74c-9.48,0-18.95.02-28.43-.03-1.28,0-3.27.78-3.13-1.83.11-2.16,1.78-1.55,2.96-1.56,19.28-.03,38.57-.03,57.85,0,1.33,0,3.31-.66,3.11,1.89-.19,2.53-2.23,1.47-3.44,1.48-9.64.09-19.28.05-28.93.05Z"/><path class="cls-4" d="m904.49,46.75c-9.48,0-18.96.03-28.43-.03-1.12,0-2.86.78-3.04-1.41-.21-2.48,1.64-1.99,3.03-1.99,19.29-.02,38.58-.02,57.86,0,1.39,0,3.23-.5,3.03,1.99-.18,2.2-1.91,1.41-3.03,1.42-9.81.06-19.62.03-29.43.03Z"/><path class="cls-4" d="m904.5,31.76c-9.48,0-18.96.03-28.44-.03-1.12,0-2.85.78-3.04-1.4-.21-2.46,1.61-2.01,3.02-2.02,19.29-.01,38.58-.01,57.87,0,1.39,0,3.23-.5,3.04,1.98-.17,2.2-1.89,1.43-3.02,1.43-9.81.06-19.62.03-29.44.03Z"/><path class="cls-4" d="m624.42,152.01c-4.46.1-8.33-1.6-11.69-4.56-.72-.64-1.68-1.34-.99-2.48.77-1.27,1.95-1.2,2.98-.38,6.64,5.33,13.25,5.4,19.91.06,1.01-.81,2.14-1.04,2.99.25.72,1.1-.09,1.89-.83,2.53-3.51,3.06-7.55,4.79-12.37,4.59Z"/><path class="cls-4" d="m613.74,121.44c-2.48-.45-4.02-1.89-3.91-4.34.11-2.44,1.71-3.93,4.21-3.86,2.57.07,3.92,1.8,3.85,4.19-.07,2.48-1.85,3.66-4.15,4Z"/></g></g></svg>