<?xml version="1.0" encoding="UTF-8"?><svg id="Layer_2" xmlns="http://www.w3.org/2000/svg" viewBox="0 0 60.41 60.63"><defs><style>.cls-1{fill:#fff;stroke-width:0px;}</style></defs><g id="_1"><g id="_172_Answer_Communication_Help_Information_"><path class="cls-1" d="m59.28,21.47h-18.95V1.31c0-.71-.61-1.31-1.31-1.31H1.31C.6,0,0,.6,0,1.31v27.73c0,.71.6,1.31,1.31,1.31h8.47l-.91,7.36c-.2,1.21,1.41,1.92,2.22,1.01l7.16-8.37h1.92v20.16c0,.71.6,1.31,1.31,1.31h20.77l7.16,8.37c.81.91,2.22.3,2.22-.81,0-.1-.2-1.81-1.01-7.56h8.47c.71,0,1.31-.6,1.31-1.31v-27.83c.1-.71-.4-1.21-1.11-1.21Zm-41.64,6.25c-.4,0-.71.2-1.01.4l-4.84,5.65.61-4.64c.1-.81-.5-1.41-1.21-1.41H2.52V2.52h35.29v18.95h-16.33c-.71,0-1.31.61-1.31,1.31v5.04l-2.52-.1h0Zm40.33,21.48h-8.67c-.81,0-1.31.71-1.21,1.41l.61,4.64-4.84-5.65c-.2-.3-.6-.4-1.01-.4h-20.16v-25.21h35.29v25.21h0Z"/><path class="cls-1" d="m44.16,45.37c.71,0,1.31-.61,1.31-1.31v-5.04h7.56v5.04c0,.71.6,1.31,1.31,1.31s1.31-.61,1.31-1.31v-12.7c0-2.02-1.61-3.63-3.63-3.63h-5.34c-2.02,0-3.63,1.61-3.63,3.63v12.8c-.2.71.4,1.21,1.11,1.21Zm2.32-15.12h5.34c.6,0,1.11.5,1.11,1.11v5.24h-7.56v-5.24c0-.6.5-1.11,1.11-1.11Z"/><path class="cls-1" d="m37.51,43.25c.2-.5.3-1.01.3-1.51v-10.38c0-2.02-1.61-3.63-3.63-3.63h-5.34c-2.02,0-3.63,1.61-3.63,3.63v10.38c0,2.02,1.61,3.63,3.63,3.63h5.34c.5,0,1.01-.1,1.51-.3l1.21,1.21c.5.5,1.31.5,1.82,0,.5-.5.5-1.31,0-1.81l-1.21-1.21Zm-8.67-.4c-.6,0-1.11-.5-1.11-1.11v-10.38c0-.6.5-1.11,1.11-1.11h5.34c.6,0,1.11.5,1.11,1.11v9.68l-1.61-1.61c-.5-.5-1.31-.5-1.82,0-.5.5-.5,1.31,0,1.81l1.61,1.61h-4.64Z"/><path class="cls-1" d="m22.69,7.56c0-.71-.6-1.31-1.31-1.31H6.25c-.71,0-1.31.6-1.31,1.31v13.91c0,.71.61,1.31,1.31,1.31s1.31-.61,1.31-1.31v-12.6h13.91c.71,0,1.21-.6,1.21-1.31Z"/></g></g></svg>