<?xml version="1.0" encoding="UTF-8"?><svg id="Layer_2" xmlns="http://www.w3.org/2000/svg" viewBox="0 0 60.59 60.69"><defs><style>.cls-1{fill:#fff;stroke-width:0px;}</style></defs><g id="_1"><g id="_174_E_Education_Learn_Learning_School"><path class="cls-1" d="m59.28,0H1.31C.6,0,0,.6,0,1.31v47.89c0,.71.6,1.31,1.31,1.31h22.68v7.56h-2.52c-.71,0-1.31.6-1.31,1.31s.6,1.31,1.31,1.31h15.12c.71,0,1.31-.61,1.31-1.31s-.6-1.31-1.31-1.31h-2.52v-7.56h25.21c.71,0,1.31-.6,1.31-1.31V1.31c-.1-.71-.6-1.31-1.31-1.31Zm-27.73,57.97h-5.04v-7.56h5.04v7.56Zm26.42-10.08H2.52v-5.04h49.1c.71,0,1.31-.61,1.31-1.31s-.6-1.31-1.31-1.31H2.52V2.52h55.45v45.37Z"/><path class="cls-1" d="m12.6,36.6h20.16c.71,0,1.31-.61,1.31-1.31,0-22.28.1-20.27-.2-20.87h0c-5.55-8.27-5.04-7.66-5.34-7.86-.2-.1-.3-.2-.6-.2-.2,0,.81,0-15.32,0-.71,0-1.31.61-1.31,1.31v27.73c.1.6.61,1.21,1.31,1.21ZM29.04,11.8l1.41,2.12h-1.41v-2.12Zm-15.12-2.92h12.6v6.35c0,.71.6,1.31,1.31,1.31h3.83v17.64H13.91V8.87Z"/><path class="cls-1" d="m26.52,18.95h-8.87c-.71,0-1.31.6-1.31,1.31s.61,1.31,1.31,1.31h8.87c.71,0,1.31-.6,1.31-1.31s-.6-1.31-1.31-1.31Z"/><path class="cls-1" d="m26.52,24h-8.87c-.71,0-1.31.6-1.31,1.31s.61,1.31,1.31,1.31h8.87c.71,0,1.31-.6,1.31-1.31s-.6-1.31-1.31-1.31Z"/><path class="cls-1" d="m26.52,29.04h-8.87c-.71,0-1.31.6-1.31,1.31s.61,1.31,1.31,1.31h8.87c.71,0,1.31-.6,1.31-1.31s-.6-1.31-1.31-1.31Z"/><path class="cls-1" d="m40.33,36.6h12.6c.71,0,1.31-.61,1.31-1.31v-15.12c0-.71-.6-1.31-1.31-1.31h-12.6c-.71,0-1.31.6-1.31,1.31v15.12c.1.71.6,1.31,1.31,1.31Zm1.31-15.12h10.08v12.6h-10.08v-12.6Z"/><path class="cls-1" d="m49.2,25.21h-1.31v-1.31c0-.71-.61-1.31-1.31-1.31s-1.31.6-1.31,1.31v1.31h-1.31c-.71,0-1.31.6-1.31,1.31s.6,1.31,1.31,1.31h5.04c.71,0,1.31-.61,1.31-1.31.1-.71-.4-1.31-1.11-1.31Z"/></g></g></svg>