<?xml version="1.0" encoding="UTF-8"?><svg id="Layer_2" xmlns="http://www.w3.org/2000/svg" viewBox="0 0 60.54 60.49"><defs><style>.cls-1{fill:#fff;stroke-width:0px;}</style></defs><g id="_1"><g id="_175_Data_Document_Extension_File_Page"><path class="cls-1" d="m41.58,0C10.03,0,11.34,0,11.24,0c-.2,0-.4.1-.61.2C10.43.4-.16,10.99.35,10.49c-.1.1-.3.3-.3.5H.05C-.06,11.29.05,8.47.05,59.18c0,.71.6,1.31,1.31,1.31h40.33c.71,0,1.31-.6,1.31-1.31s-.61-1.31-1.31-1.31H2.47V12.5h8.87c.71,0,1.31-.6,1.31-1.31V2.32h27.73v8.87c0,.71.61,1.31,1.31,1.31s1.31-.6,1.31-1.31V1.11c-.2-.5-.71-1.11-1.41-1.11ZM4.28,10.08l5.75-5.75v5.75h-5.75Z"/><path class="cls-1" d="m59.23,15.12h-10.08c-.71,0-1.31.61-1.31,1.31v32.77c0,.3.1.5.2.71.1.1,1.81,2.32,5.14,6.35.5.6,1.51.6,2.02,0,5.95-7.36,5.04-6.35,5.14-6.45.2-.5.2,1.92.2-33.37-.1-.7-.61-1.31-1.31-1.31Zm-8.87,32.77v-23.89h7.56v24h-7.56v-.1Zm7.56-30.25v3.83h-7.56v-3.83h7.56Zm-3.73,35.79l-2.42-3.02h4.84l-2.42,3.02Z"/><path class="cls-1" d="m35.23,18.95H10.03c-.71,0-1.31.61-1.31,1.31s.6,1.31,1.31,1.31h25.21c.71,0,1.31-.61,1.31-1.31s-.6-1.31-1.31-1.31Z"/><path class="cls-1" d="m35.23,26.52H10.03c-.71,0-1.31.6-1.31,1.31s.6,1.31,1.31,1.31h25.21c.71,0,1.31-.61,1.31-1.31s-.6-1.31-1.31-1.31Z"/><path class="cls-1" d="m35.23,34.08H10.03c-.71,0-1.31.6-1.31,1.31s.6,1.31,1.31,1.31h25.21c.71,0,1.31-.6,1.31-1.31s-.6-1.31-1.31-1.31Z"/><path class="cls-1" d="m35.23,41.64H10.03c-.71,0-1.31.6-1.31,1.31s.6,1.31,1.31,1.31h25.21c.71,0,1.31-.6,1.31-1.31s-.6-1.31-1.31-1.31Z"/><path class="cls-1" d="m35.23,49.2H10.03c-.71,0-1.31.6-1.31,1.31s.6,1.31,1.31,1.31h25.21c.71,0,1.31-.6,1.31-1.31,0-.81-.6-1.31-1.31-1.31Z"/></g></g></svg>