<svg width="438" height="335" viewBox="0 0 438 335" fill="none" xmlns="http://www.w3.org/2000/svg">
<rect width="165" height="97" rx="38.8" fill="#E6E6E6"/>
<path d="M51.76 48.34H53.28V50.68H51.76V48.34ZM51.46 50.28L52.64 50.82C50.68 52.6 47.14 54.06 44.08 54.72C43.9 54.38 43.52 53.9 43.24 53.62C46.24 53.04 49.72 51.78 51.46 50.28ZM53.42 50.3C54.82 53.4 57.8 55.62 61.78 56.46C61.46 56.76 61.08 57.3 60.9 57.68C56.74 56.64 53.74 54.2 52.14 50.6L53.42 50.3ZM59.28 51.42L60.4 52.22C59.16 53.08 57.54 53.94 56.26 54.52L55.32 53.76C56.56 53.18 58.28 52.18 59.28 51.42ZM45.46 56.12C47.64 55.86 51.06 55.38 54.34 54.92L54.4 56.12C51.28 56.6 47.96 57.08 45.68 57.42L45.46 56.12ZM43.52 49.9H61.48V51.1H43.52V49.9ZM50.86 42H61.2V43.28H50.86V42ZM51.3 46.56H60.76V47.86H51.3V46.56ZM48.6 39.2H50.02V49.08H48.6V39.2ZM55.2 39.2H56.7V47.3H55.2V39.2ZM44.62 39.48H45.92V43.56H44.62V39.48ZM45.26 41.92H49.28V43.12H45.26V41.92ZM43.6 44.56H49.28V45.76H43.6V44.56ZM45.12 44.98H46.52C46.36 47.08 45.82 48.6 43.98 49.5C43.82 49.2 43.44 48.74 43.14 48.52C44.6 47.84 45 46.62 45.12 44.98ZM47.94 52.86L48.54 52.26L49.38 52.5V56.46H47.94V52.86ZM75.48 41.14V42.94H78.84V41.14H75.48ZM70.8 41.14V42.94H74.1V41.14H70.8ZM66.22 41.14V42.94H69.42V41.14H66.22ZM64.78 40.06H80.34V44.04H64.78V40.06ZM63.86 45.14H81.16V46.3H63.86V45.14ZM65.6 55.56H81.66V56.78H65.6V55.56ZM64.96 47.78H66.48V57.62H64.96V47.78ZM69.9 50.4V51.5H78.04V50.4H69.9ZM69.9 52.4V53.54H78.04V52.4H69.9ZM69.9 48.42V49.5H78.04V48.42H69.9ZM68.5 47.48H79.5V54.46H68.5V47.48ZM72.04 43.72L73.54 43.84C73.36 45.22 73.08 46.9 72.86 47.96H71.4C71.64 46.84 71.9 45.1 72.04 43.72ZM87.4 47.1V54.18H85.96V48.5H83.42V47.1H87.4ZM87.4 53.58C88.34 55.06 90.1 55.74 92.48 55.82C94.7 55.92 99.32 55.86 101.74 55.7C101.56 56.04 101.32 56.74 101.26 57.18C99 57.28 94.72 57.32 92.48 57.22C89.84 57.12 88.02 56.42 86.78 54.84C85.9 55.7 84.98 56.56 83.98 57.44L83.2 55.98C84.08 55.34 85.16 54.44 86.1 53.58H87.4ZM83.6 40.54L84.74 39.72C85.98 40.62 87.38 42 88 42.98L86.76 43.92C86.2 42.92 84.82 41.52 83.6 40.54ZM88.54 41H101.12V42.26H88.54V41ZM88.24 51.56H101.42V52.82H88.24V51.56ZM93.96 39.22H95.44V55.1H93.96V39.22ZM90.88 47.4V49H98.62V47.4H90.88ZM90.88 44.76V46.34H98.62V44.76H90.88ZM89.5 43.64H100.08V50.14H89.5V43.64ZM120.36 49.22L121.56 50.1C120.48 51.08 119.12 52.2 118.08 52.9L117.16 52.18C118.16 51.42 119.56 50.12 120.36 49.22ZM115.4 39.18L117.06 39.5C116.58 40.46 116.02 41.5 115.56 42.16L114.3 41.84C114.68 41.1 115.16 39.98 115.4 39.18ZM112.68 45.38V47.12H119.42V45.38H112.68ZM112.68 42.48V44.22H119.42V42.48H112.68ZM111.3 41.28H120.86V48.34H111.3V41.28ZM115.34 47.68H116.7V56C116.7 56.76 116.56 57.14 116.06 57.36C115.54 57.58 114.74 57.6 113.48 57.6C113.44 57.22 113.26 56.66 113.08 56.28C113.98 56.3 114.78 56.3 115.02 56.28C115.28 56.28 115.34 56.22 115.34 56V47.68ZM110.54 50.08H113.88V51.34H110.54V50.08ZM113.54 50.08H113.8L114.06 50.04L114.88 50.38C114.16 53.56 112.58 55.66 110.58 56.8C110.4 56.48 109.94 55.98 109.64 55.76C111.52 54.78 112.96 52.94 113.54 50.32V50.08ZM116.52 47.78C117.08 50.6 118.52 54.04 122.02 55.56C121.74 55.84 121.3 56.4 121.1 56.78C117.68 55.02 116.24 51.4 115.7 48.8L116.52 47.78ZM106.42 39.22L107.74 39.72C106.98 41.2 106.04 43 105.26 44.1L104.24 43.66C104.96 42.5 105.9 40.54 106.42 39.22ZM108.66 41.5L109.92 42.08C108.54 44.3 106.6 47.14 105.1 48.88L104.18 48.36C105.68 46.58 107.56 43.6 108.66 41.5ZM103.22 43.38L104.02 42.42C105.1 43.4 106.32 44.74 106.84 45.66L105.98 46.78C105.48 45.82 104.28 44.4 103.22 43.38ZM107.88 46.08L108.96 45.62C109.8 46.94 110.62 48.66 110.9 49.76L109.72 50.3C109.46 49.18 108.68 47.4 107.88 46.08ZM103.06 48.06C104.8 47.98 107.3 47.86 109.82 47.72V48.98C107.44 49.14 105.04 49.28 103.22 49.4L103.06 48.06ZM108.4 50.92L109.5 50.58C110.02 51.72 110.44 53.2 110.56 54.16L109.4 54.52C109.3 53.56 108.88 52.06 108.4 50.92ZM104.26 50.64L105.52 50.86C105.26 52.76 104.8 54.68 104.16 55.96C103.92 55.8 103.32 55.54 103.02 55.4C103.66 54.18 104.04 52.38 104.26 50.64ZM106.38 48.64H107.7V57.6H106.38V48.64Z" fill="black"/>
<rect x="273" width="165" height="97" rx="38.8" fill="#E6E6E6"/>
<path d="M320.4 47.1V54.18H318.96V48.5H316.42V47.1H320.4ZM320.4 53.58C321.34 55.06 323.1 55.74 325.48 55.82C327.7 55.92 332.32 55.86 334.74 55.7C334.56 56.04 334.32 56.74 334.26 57.18C332 57.28 327.72 57.32 325.48 57.22C322.84 57.12 321.02 56.42 319.78 54.84C318.9 55.7 317.98 56.56 316.98 57.44L316.2 55.98C317.08 55.34 318.16 54.44 319.1 53.58H320.4ZM316.6 40.54L317.74 39.72C318.98 40.62 320.38 42 321 42.98L319.76 43.92C319.2 42.92 317.82 41.52 316.6 40.54ZM321.54 41H334.12V42.26H321.54V41ZM321.24 51.56H334.42V52.82H321.24V51.56ZM326.96 39.22H328.44V55.1H326.96V39.22ZM323.88 47.4V49H331.62V47.4H323.88ZM323.88 44.76V46.34H331.62V44.76H323.88ZM322.5 43.64H333.08V50.14H322.5V43.64ZM353.36 49.22L354.56 50.1C353.48 51.08 352.12 52.2 351.08 52.9L350.16 52.18C351.16 51.42 352.56 50.12 353.36 49.22ZM348.4 39.18L350.06 39.5C349.58 40.46 349.02 41.5 348.56 42.16L347.3 41.84C347.68 41.1 348.16 39.98 348.4 39.18ZM345.68 45.38V47.12H352.42V45.38H345.68ZM345.68 42.48V44.22H352.42V42.48H345.68ZM344.3 41.28H353.86V48.34H344.3V41.28ZM348.34 47.68H349.7V56C349.7 56.76 349.56 57.14 349.06 57.36C348.54 57.58 347.74 57.6 346.48 57.6C346.44 57.22 346.26 56.66 346.08 56.28C346.98 56.3 347.78 56.3 348.02 56.28C348.28 56.28 348.34 56.22 348.34 56V47.68ZM343.54 50.08H346.88V51.34H343.54V50.08ZM346.54 50.08H346.8L347.06 50.04L347.88 50.38C347.16 53.56 345.58 55.66 343.58 56.8C343.4 56.48 342.94 55.98 342.64 55.76C344.52 54.78 345.96 52.94 346.54 50.32V50.08ZM349.52 47.78C350.08 50.6 351.52 54.04 355.02 55.56C354.74 55.84 354.3 56.4 354.1 56.78C350.68 55.02 349.24 51.4 348.7 48.8L349.52 47.78ZM339.42 39.22L340.74 39.72C339.98 41.2 339.04 43 338.26 44.1L337.24 43.66C337.96 42.5 338.9 40.54 339.42 39.22ZM341.66 41.5L342.92 42.08C341.54 44.3 339.6 47.14 338.1 48.88L337.18 48.36C338.68 46.58 340.56 43.6 341.66 41.5ZM336.22 43.38L337.02 42.42C338.1 43.4 339.32 44.74 339.84 45.66L338.98 46.78C338.48 45.82 337.28 44.4 336.22 43.38ZM340.88 46.08L341.96 45.62C342.8 46.94 343.62 48.66 343.9 49.76L342.72 50.3C342.46 49.18 341.68 47.4 340.88 46.08ZM336.06 48.06C337.8 47.98 340.3 47.86 342.82 47.72V48.98C340.44 49.14 338.04 49.28 336.22 49.4L336.06 48.06ZM341.4 50.92L342.5 50.58C343.02 51.72 343.44 53.2 343.56 54.16L342.4 54.52C342.3 53.56 341.88 52.06 341.4 50.92ZM337.26 50.64L338.52 50.86C338.26 52.76 337.8 54.68 337.16 55.96C336.92 55.8 336.32 55.54 336.02 55.4C336.66 54.18 337.04 52.38 337.26 50.64ZM339.38 48.64H340.7V57.6H339.38V48.64ZM358.9 46.7H363.88V48.1H358.9V46.7ZM363.28 46.7H364.74C364.74 46.7 364.74 47.14 364.74 47.34C364.64 51.86 364.52 53.54 364.1 54.1C363.78 54.46 363.46 54.6 362.9 54.66C362.38 54.72 361.48 54.7 360.5 54.66C360.46 54.22 360.3 53.64 360.08 53.26C360.98 53.34 361.86 53.34 362.2 53.34C362.48 53.34 362.68 53.32 362.82 53.14C363.12 52.78 363.22 51.28 363.28 46.96V46.7ZM368.92 40.22L369.82 39.28C371.06 39.92 372.64 40.88 373.42 41.58L372.48 42.6C371.72 41.9 370.18 40.88 368.92 40.22ZM371.78 45.64L373.28 46C371.58 51.22 368.6 55.08 364.5 57.5C364.28 57.2 363.72 56.58 363.4 56.28C367.46 54.12 370.28 50.46 371.78 45.64ZM359.02 42.6H374.5V44.08H359.02V42.6ZM358.06 42.6H359.62V48.24C359.62 51.08 359.3 55.12 357.48 57.74C357.22 57.44 356.58 56.92 356.22 56.74C357.88 54.28 358.06 50.84 358.06 48.22V42.6ZM366.36 39.24H367.92C367.88 48.44 369.84 55.94 372.44 55.94C373 55.94 373.26 54.9 373.38 52.24C373.72 52.58 374.28 52.92 374.68 53.06C374.4 56.48 373.84 57.46 372.32 57.46C368.24 57.46 366.44 48.82 366.36 39.24ZM376.52 41.58H383.86V43H376.52V41.58ZM384.02 43.78H393.52V45.22H384.02V43.78ZM379.48 42.14H380.94V52.16H379.48V42.14ZM392.82 43.78H394.3C394.3 43.78 394.3 44.32 394.28 44.54C393.96 52.8 393.68 55.7 392.92 56.6C392.48 57.16 392.06 57.32 391.38 57.4C390.72 57.46 389.56 57.44 388.42 57.36C388.38 56.94 388.22 56.3 387.96 55.88C389.18 56 390.32 56 390.76 56C391.16 56 391.38 55.94 391.6 55.7C392.22 55.02 392.54 52.06 392.82 44.1V43.78ZM376.24 52.38C378.22 51.92 381.26 51.1 384.16 50.32L384.36 51.74C381.64 52.52 378.74 53.34 376.62 53.92L376.24 52.38ZM387.42 39.54H388.94C388.9 47.26 388.84 54.18 382.72 57.62C382.5 57.26 382 56.72 381.64 56.44C387.5 53.32 387.38 46.84 387.42 39.54Z" fill="black"/>
<rect x="273" y="119" width="165" height="97" rx="38.8" fill="#E6E6E6"/>
<path d="M320.4 166.1V173.18H318.96V167.5H316.42V166.1H320.4ZM320.4 172.58C321.34 174.06 323.1 174.74 325.48 174.82C327.7 174.92 332.32 174.86 334.74 174.7C334.56 175.04 334.32 175.74 334.26 176.18C332 176.28 327.72 176.32 325.48 176.22C322.84 176.12 321.02 175.42 319.78 173.84C318.9 174.7 317.98 175.56 316.98 176.44L316.2 174.98C317.08 174.34 318.16 173.44 319.1 172.58H320.4ZM316.6 159.54L317.74 158.72C318.98 159.62 320.38 161 321 161.98L319.76 162.92C319.2 161.92 317.82 160.52 316.6 159.54ZM321.54 160H334.12V161.26H321.54V160ZM321.24 170.56H334.42V171.82H321.24V170.56ZM326.96 158.22H328.44V174.1H326.96V158.22ZM323.88 166.4V168H331.62V166.4H323.88ZM323.88 163.76V165.34H331.62V163.76H323.88ZM322.5 162.64H333.08V169.14H322.5V162.64ZM353.36 168.22L354.56 169.1C353.48 170.08 352.12 171.2 351.08 171.9L350.16 171.18C351.16 170.42 352.56 169.12 353.36 168.22ZM348.4 158.18L350.06 158.5C349.58 159.46 349.02 160.5 348.56 161.16L347.3 160.84C347.68 160.1 348.16 158.98 348.4 158.18ZM345.68 164.38V166.12H352.42V164.38H345.68ZM345.68 161.48V163.22H352.42V161.48H345.68ZM344.3 160.28H353.86V167.34H344.3V160.28ZM348.34 166.68H349.7V175C349.7 175.76 349.56 176.14 349.06 176.36C348.54 176.58 347.74 176.6 346.48 176.6C346.44 176.22 346.26 175.66 346.08 175.28C346.98 175.3 347.78 175.3 348.02 175.28C348.28 175.28 348.34 175.22 348.34 175V166.68ZM343.54 169.08H346.88V170.34H343.54V169.08ZM346.54 169.08H346.8L347.06 169.04L347.88 169.38C347.16 172.56 345.58 174.66 343.58 175.8C343.4 175.48 342.94 174.98 342.64 174.76C344.52 173.78 345.96 171.94 346.54 169.32V169.08ZM349.52 166.78C350.08 169.6 351.52 173.04 355.02 174.56C354.74 174.84 354.3 175.4 354.1 175.78C350.68 174.02 349.24 170.4 348.7 167.8L349.52 166.78ZM339.42 158.22L340.74 158.72C339.98 160.2 339.04 162 338.26 163.1L337.24 162.66C337.96 161.5 338.9 159.54 339.42 158.22ZM341.66 160.5L342.92 161.08C341.54 163.3 339.6 166.14 338.1 167.88L337.18 167.36C338.68 165.58 340.56 162.6 341.66 160.5ZM336.22 162.38L337.02 161.42C338.1 162.4 339.32 163.74 339.84 164.66L338.98 165.78C338.48 164.82 337.28 163.4 336.22 162.38ZM340.88 165.08L341.96 164.62C342.8 165.94 343.62 167.66 343.9 168.76L342.72 169.3C342.46 168.18 341.68 166.4 340.88 165.08ZM336.06 167.06C337.8 166.98 340.3 166.86 342.82 166.72V167.98C340.44 168.14 338.04 168.28 336.22 168.4L336.06 167.06ZM341.4 169.92L342.5 169.58C343.02 170.72 343.44 172.2 343.56 173.16L342.4 173.52C342.3 172.56 341.88 171.06 341.4 169.92ZM337.26 169.64L338.52 169.86C338.26 171.76 337.8 173.68 337.16 174.96C336.92 174.8 336.32 174.54 336.02 174.4C336.66 173.18 337.04 171.38 337.26 169.64ZM339.38 167.64H340.7V176.6H339.38V167.64ZM356.56 167.2H374.44V168.72H356.56V167.2ZM360.22 158.48L361.78 158.82C360.94 161.76 359.62 164.56 358.12 166.38C357.8 166.14 357.06 165.76 356.68 165.58C358.24 163.88 359.48 161.22 360.22 158.48ZM360.02 161.72H372.76V163.22H359.3L360.02 161.72ZM366.38 167.52C367.6 171.54 370.38 174.24 374.92 175.24C374.58 175.56 374.14 176.2 373.9 176.62C369.2 175.38 366.42 172.46 365 167.86L366.38 167.52ZM364.62 158.2H366.18V164.44C366.18 169.04 365.24 173.88 357.26 176.64C357.1 176.26 356.64 175.64 356.32 175.34C363.8 172.8 364.62 168.5 364.62 164.42V158.2ZM386.7 161.92H394.7V163.34H386.7V161.92ZM387.38 158.2L388.92 158.46C388.18 162.2 386.88 165.64 385.1 167.86C384.84 167.6 384.18 167.1 383.82 166.88C385.58 164.84 386.74 161.62 387.38 158.2ZM391.68 162.64L393.22 162.84C392.18 169.66 390 174 385.04 176.66C384.9 176.3 384.44 175.62 384.14 175.28C388.8 173 390.78 168.9 391.68 162.64ZM387.48 163.04C388.52 168.68 390.74 173.38 394.94 175.32C394.6 175.62 394.12 176.2 393.86 176.62C389.48 174.38 387.28 169.48 386.1 163.3L387.48 163.04ZM378.62 171.82L380.06 172.18C379.46 173.86 378.42 175.56 377.36 176.66C377.1 176.4 376.48 175.98 376.16 175.76C377.2 174.78 378.1 173.3 378.62 171.82ZM381.46 172.4L382.68 171.82C383.48 172.74 384.34 174 384.72 174.84L383.44 175.52C383.06 174.66 382.22 173.34 381.46 172.4ZM378.7 163.92V166.46H382.82V163.92H378.7ZM378.7 167.64V170.18H382.82V167.64H378.7ZM378.7 160.22V162.74H382.82V160.22H378.7ZM377.26 158.98H384.3V171.44H377.26V158.98Z" fill="black"/>
<rect x="273" y="238" width="165" height="97" rx="38.8" fill="#E6E6E6"/>
<path d="M319.48 289.3H331.46V290.32H319.48V289.3ZM319.52 286.84H332.32V292.8H319.52V291.7H330.84V287.92H319.52V286.84ZM324.64 287.38H326.08V293.42C326.08 294.1 326.32 294.24 327.6 294.24C328.2 294.24 331.28 294.24 332.06 294.24C333.14 294.24 333.32 293.88 333.42 291.86C333.76 292.1 334.32 292.3 334.74 292.38C334.52 294.82 334.06 295.44 332.16 295.44C331.64 295.44 328.02 295.44 327.52 295.44C325.28 295.44 324.64 295.04 324.64 293.4V287.38ZM318.74 286.84H320.18V293.84H318.74V286.84ZM318.18 278.06H332.8V279.24H318.18V278.06ZM319.42 282.64H323.66V283.6H319.42V282.64ZM319.02 284.7H323.68V285.64H319.02V284.7ZM327.22 284.7H332.02V285.64H327.22V284.7ZM327.22 282.64H331.54V283.6H327.22V282.64ZM324.7 278.52H326.16V286.16H324.7V278.52ZM317.02 280.46H334V284.36H332.58V281.56H318.38V284.36H317.02V280.46ZM340.48 280.7V281.82H350.44V280.7H340.48ZM340.48 278.76V279.84H350.44V278.76H340.48ZM339.04 277.86H351.94V282.72H339.04V277.86ZM340.1 288.56V289.7H351.04V288.56H340.1ZM340.1 286.54V287.66H351.04V286.54H340.1ZM338.68 285.6H352.52V290.62H338.68V285.6ZM344.72 285.94H346.2V294.56H344.72V285.94ZM336.54 283.56H354.48V284.72H336.54V283.56ZM338.12 291.72H352.96V292.78H338.12V291.72ZM336.42 293.94H354.58V295.12H336.42V293.94ZM358.52 283.78L359.68 284.18C359.14 285.14 358.5 286.22 358 286.94L357.1 286.6C357.6 285.84 358.2 284.6 358.52 283.78ZM360.2 285.38L361.3 285.9C360.28 287.38 359 289.2 357.96 290.32L357.14 289.88C358.18 288.72 359.48 286.74 360.2 285.38ZM358.56 281.6V283.04H364.2V281.6H358.56ZM358.56 279.2V280.62H364.2V279.2H358.56ZM357.24 278.18H365.52V284.08H357.24V278.18ZM356.36 286.36L356.96 285.52C357.86 286.12 358.84 287 359.32 287.6L358.66 288.54C358.18 287.92 357.22 286.98 356.36 286.36ZM359.7 288.42L360.54 288.1C360.98 288.96 361.36 290.06 361.5 290.78L360.58 291.14C360.46 290.4 360.08 289.28 359.7 288.42ZM359.46 291.88L360.5 291.74C360.72 292.76 360.9 294.08 360.96 294.94L359.84 295.12C359.82 294.24 359.66 292.92 359.46 291.88ZM361.54 291.74L362.52 291.48C362.92 292.4 363.3 293.58 363.44 294.36L362.42 294.64C362.28 293.88 361.92 292.66 361.54 291.74ZM363.54 291.48L364.48 291.1C365.02 291.84 365.6 292.82 365.88 293.46L364.9 293.92C364.64 293.26 364.06 292.22 363.54 291.48ZM357.6 291.5L358.68 291.86C358.44 293.16 358 294.64 357.14 295.54L356.1 294.9C356.86 294.12 357.36 292.72 357.6 291.5ZM356.3 289.66C357.54 289.64 359.16 289.56 360.92 289.5L360.9 290.52C359.26 290.64 357.72 290.72 356.4 290.8L356.3 289.66ZM362.98 283.78L364.16 284.18C363.6 285.14 362.98 286.22 362.48 286.94L361.58 286.6C362.06 285.84 362.68 284.6 362.98 283.78ZM364.72 285.34L365.8 285.86C364.78 287.34 363.46 289.16 362.4 290.3L361.6 289.84C362.64 288.68 363.96 286.72 364.72 285.34ZM360.88 286.38L361.48 285.54C362.36 286.14 363.32 287 363.8 287.6L363.14 288.54C362.68 287.94 361.72 287.02 360.88 286.38ZM364.24 288.38L365.12 288.02C365.64 288.9 366.16 290.06 366.36 290.82L365.4 291.26C365.22 290.46 364.74 289.28 364.24 288.38ZM361.3 289.68C362.46 289.64 363.94 289.56 365.54 289.46V290.52C364.08 290.62 362.68 290.74 361.46 290.82L361.3 289.68ZM366.36 278.16H374.42V279.46H366.36V278.16ZM368.2 285.58V287.5H372.74V285.58H368.2ZM368.2 288.64V290.6H372.74V288.64H368.2ZM368.2 282.52V284.42H372.74V282.52H368.2ZM366.92 281.34H374.04V291.78H366.92V281.34ZM369.66 278.76L371.24 278.98C370.96 280.1 370.7 281.36 370.46 282.2L369.24 281.96C369.42 281.06 369.6 279.7 369.66 278.76ZM368.68 292.28L369.96 293C369.04 293.98 367.58 295.04 366.36 295.66C366.14 295.38 365.68 294.98 365.36 294.72C366.6 294.14 368 293.12 368.68 292.28ZM371.16 293.02L372.26 292.34C373.18 293.06 374.34 294.14 374.94 294.88L373.78 295.64C373.24 294.92 372.1 293.8 371.16 293.02ZM384.7 284.34H386.32V293.66C386.32 294.62 386.08 295.08 385.38 295.34C384.66 295.56 383.48 295.58 381.72 295.58C381.64 295.14 381.4 294.48 381.16 294.02C382.52 294.06 383.84 294.06 384.22 294.04C384.6 294.04 384.7 293.94 384.7 293.62V284.34ZM380.16 287L381.72 287.4C380.74 289.86 379.16 292.26 377.56 293.8C377.26 293.52 376.58 293.1 376.18 292.88C377.82 291.46 379.3 289.26 380.16 287ZM389.16 287.6L390.54 287.02C392.02 288.9 393.58 291.44 394.16 293.14L392.66 293.8C392.12 292.14 390.62 289.52 389.16 287.6ZM378.48 278.7H392.54V280.18H378.48V278.7ZM376.68 283.54H394.32V285.04H376.68V283.54Z" fill="black"/>
<path d="M169 48.5H269" stroke="#E6E6E6" stroke-width="3" stroke-linecap="round" stroke-linejoin="bevel"/>
<path d="M169 48.5H195C208.255 48.5 219 59.2452 219 72.5V143.5C219 156.755 229.745 167.5 243 167.5H269" stroke="#E6E6E6" stroke-width="3" stroke-linecap="round" stroke-linejoin="bevel"/>
<path d="M169 48.5H195C208.255 48.5 219 59.2452 219 72.5V262.5C219 275.755 229.745 286.5 243 286.5H269" stroke="#E6E6E6" stroke-width="3" stroke-linecap="round" stroke-linejoin="bevel"/>
</svg>
