<?xml version="1.0" encoding="UTF-8"?><svg id="Layer_2" xmlns="http://www.w3.org/2000/svg" viewBox="0 0 60.54 60.47"><defs><style>.cls-1{fill:#fff;stroke-width:0px;}</style></defs><g id="_1"><g id="_156_Alarm_Education_Time_"><path class="cls-1" d="m51.62,8.85c-11.8-11.8-30.95-11.8-42.75,0C3.12,14.59,0,22.16,0,30.22c0,16.74,13.51,30.25,30.25,30.25,8.07,0,15.63-3.12,21.37-8.87,11.9-11.8,11.9-30.95,0-42.75Zm-21.37,49.1c-15.33,0-27.73-12.4-27.73-27.73S15.02,2.5,30.25,2.5s27.73,12.5,27.73,27.73-12.4,27.73-27.73,27.73Z"/><path class="cls-1" d="m30.25,7.54c-12.5,0-22.68,10.18-22.68,22.69s10.18,22.68,22.68,22.68,22.68-10.18,22.68-22.68S42.75,7.54,30.25,7.54Zm0,42.85c-11.09,0-20.16-9.07-20.16-20.16S19.16,10.06,30.25,10.06s20.16,9.07,20.16,20.17-8.97,20.16-20.16,20.16Z"/><path class="cls-1" d="m30.25,17.62c.71,0,1.31-.6,1.31-1.31v-3.83c0-.71-.6-1.31-1.31-1.31s-1.31.6-1.31,1.31v3.83c.1.81.6,1.31,1.31,1.31Z"/><path class="cls-1" d="m30.25,42.82c-.71,0-1.31.6-1.31,1.31v3.83c0,.71.6,1.31,1.31,1.31s1.31-.6,1.31-1.31v-3.83c0-.71-.6-1.31-1.31-1.31Z"/><path class="cls-1" d="m40.93,21.35l2.72-2.72c.5-.5.5-1.31,0-1.82-.5-.5-1.31-.5-1.81,0l-2.62,2.72c-.5.5-.5,1.31,0,1.81.5.5,1.21.5,1.71,0Z"/><path class="cls-1" d="m19.56,39.19l-2.72,2.62c-.5.5-.5,1.31,0,1.82.5.5,1.31.5,1.81,0l2.62-2.72c.5-.5.5-1.31,0-1.81-.4-.4-1.21-.4-1.71.1Z"/><path class="cls-1" d="m47.89,29.01h-3.83c-.71,0-1.31.6-1.31,1.31s.6,1.31,1.31,1.31h3.83c.71,0,1.31-.61,1.31-1.31s-.6-1.31-1.31-1.31Z"/><path class="cls-1" d="m17.64,30.22c0-.71-.61-1.31-1.31-1.31h-3.83c-.71,0-1.31.61-1.31,1.31s.61,1.31,1.31,1.31h3.83c.81,0,1.31-.61,1.31-1.31Z"/><path class="cls-1" d="m40.93,39.19c-.5-.5-1.31-.5-1.82,0s-.5,1.31,0,1.81l2.72,2.72c.5.5,1.31.5,1.81,0s.5-1.31,0-1.81l-2.72-2.72Z"/><path class="cls-1" d="m19.56,21.35c.5.5,1.31.5,1.82,0,.5-.5.5-1.31,0-1.81l-2.62-2.72c-.5-.5-1.31-.5-1.81,0-.5.5-.5,1.31,0,1.82l2.62,2.72Z"/><path class="cls-1" d="m39.12,31.53c.71,0,1.31-.61,1.31-1.31s-.6-1.31-1.31-1.31h-5.24c-.4-1.11-1.21-1.91-2.32-2.32v-5.24c0-.71-.6-1.31-1.31-1.31s-1.31.61-1.31,1.31c0,5.34,0,5.04,0,5.24-1.51.5-2.52,1.92-2.52,3.53,0,2.12,1.71,3.83,3.83,3.83,1.61,0,3.02-1.01,3.53-2.52h.2l5.14.1h0Zm-8.87,0c-.71,0-1.31-.61-1.31-1.31s.6-1.31,1.31-1.31,1.31.61,1.31,1.31-.6,1.31-1.31,1.31Z"/></g></g></svg>