<svg width="282" height="475" viewBox="0 0 282 475" fill="none" xmlns="http://www.w3.org/2000/svg">
<rect x="168" width="114" height="67" rx="26.8" fill="#E6E6E6"/>
<path d="M198.2 25.7H199.54V40.52H198.2V25.7ZM202 24.74H203.44V42.58H202V24.74ZM194.52 24.9H195.88V32.14C195.88 35.92 195.66 39.72 193.68 42.66C193.42 42.36 192.88 41.94 192.52 41.74C194.3 39.04 194.52 35.58 194.52 32.14V24.9ZM186.7 30.26H192.66V31.46H186.7V30.26ZM186.8 24.92H192.62V26.12H186.8V24.92ZM186.7 32.94H192.66V34.14H186.7V32.94ZM185.76 27.54H193.36V28.78H185.76V27.54ZM187.42 35.64H192.66V41.48H187.42V40.22H191.34V36.88H187.42V35.64ZM186.68 35.64H187.98V42.4H186.68V35.64ZM217.72 35.6H219.14V42.6H217.72V35.6ZM212.92 26.22H223.9V27.54H212.92V26.22ZM214.9 33.22V34.98H222.06V33.22H214.9ZM214.9 30.36V32.12H222.06V30.36H214.9ZM213.54 29.22H223.46V36.12H213.54V29.22ZM219.36 35.4C220.5 37.38 222.7 39.56 224.62 40.62C224.26 40.88 223.82 41.38 223.58 41.76C221.66 40.5 219.48 38.08 218.26 35.84L219.36 35.4ZM217.44 35.46L218.62 35.88C217.36 38.34 215.08 40.7 212.9 41.92C212.66 41.56 212.2 41.04 211.88 40.76C214.02 39.74 216.28 37.6 217.44 35.46ZM217.72 24.22H219.14V29.88H219.08V35.74H217.78V29.88H217.72V24.22ZM208.92 24.22L210.24 24.72C209.48 26.2 208.54 28 207.76 29.1L206.74 28.66C207.46 27.5 208.4 25.54 208.92 24.22ZM211.16 26.5L212.42 27.08C211.04 29.3 209.1 32.14 207.6 33.88L206.68 33.36C208.18 31.58 210.06 28.6 211.16 26.5ZM205.72 28.38L206.52 27.42C207.6 28.4 208.82 29.74 209.34 30.66L208.48 31.78C207.98 30.82 206.78 29.4 205.72 28.38ZM210.38 31.08L211.46 30.62C212.3 31.94 213.12 33.66 213.4 34.76L212.22 35.3C211.96 34.18 211.18 32.4 210.38 31.08ZM205.56 33.06C207.3 32.98 209.8 32.86 212.32 32.72V33.98C209.94 34.14 207.54 34.28 205.72 34.4L205.56 33.06ZM210.94 35.9L212.04 35.56C212.54 36.68 212.96 38.14 213.08 39.08L211.92 39.46C211.82 38.5 211.4 37 210.94 35.9ZM206.76 35.64L208.02 35.86C207.76 37.76 207.3 39.68 206.66 40.96C206.42 40.8 205.82 40.54 205.52 40.4C206.16 39.18 206.54 37.38 206.76 35.64ZM208.88 33.64H210.2V42.6H208.88V33.64ZM235.52 31.86H242.42V33.28H235.52V31.86ZM234.86 31.86H236.36V40.02C236.36 40.8 236.58 40.96 237.68 40.96C238.2 40.96 240.8 40.96 241.48 40.96C242.56 40.96 242.72 40.44 242.84 37.66C243.2 37.92 243.84 38.18 244.26 38.28C244.04 41.5 243.58 42.4 241.58 42.4C241.08 42.4 238.02 42.4 237.56 42.4C235.48 42.4 234.86 41.92 234.86 40V31.86ZM234.64 25.34H243.2V34.4H241.68V26.76H234.64V25.34ZM226.7 30.26H232.94V31.46H226.7V30.26ZM226.82 24.92H233.02V26.12H226.82V24.92ZM226.7 32.94H232.94V34.14H226.7V32.94ZM225.76 27.54H233.72V28.78H225.76V27.54ZM227.4 35.64H232.88V41.48H227.4V40.22H231.54V36.88H227.4V35.64ZM226.68 35.64H228.02V42.4H226.68V35.64ZM256.06 25.72H261.7V26.88H256.06V25.72ZM255.56 28.86H261.4V30.02H255.56V28.86ZM253.52 31.74H264.16V33H253.52V31.74ZM261.16 25.72H261.32L261.58 25.64L262.62 25.76C262.42 27.68 262.04 30.34 261.68 32.34L260.26 32.22C260.64 30.2 261 27.36 261.16 25.9V25.72ZM255.9 24.2L257.32 24.34C256.94 26.46 256.36 29.22 255.94 30.88L254.5 30.72C254.96 29.06 255.54 26.26 255.9 24.2ZM253.02 40.28C254.14 39.66 255.82 38.64 257.44 37.62L257.88 38.72C256.5 39.68 255 40.66 253.78 41.42L253.02 40.28ZM253.92 34.54L254.96 33.9C255.76 34.66 256.62 35.74 256.98 36.48L255.86 37.22C255.52 36.46 254.7 35.34 253.92 34.54ZM262.76 33.86L263.96 34.48C263.28 35.44 262.48 36.44 261.82 37.14L260.84 36.56C261.46 35.84 262.3 34.68 262.76 33.86ZM258.06 32.32H259.5V41.06C259.5 41.78 259.36 42.16 258.86 42.38C258.4 42.6 257.64 42.62 256.48 42.62C256.42 42.24 256.22 41.7 256.04 41.32C256.84 41.36 257.54 41.34 257.76 41.34C258 41.34 258.06 41.28 258.06 41.06V32.32ZM259.46 33.4C260.18 36.62 261.78 39.26 264.42 40.36C264.12 40.62 263.7 41.14 263.5 41.52C260.76 40.16 259.18 37.26 258.38 33.62L259.46 33.4ZM247.16 29.16H252.78V30.46H247.16V29.16ZM246.08 32.58H253.4V33.9H246.08V32.58ZM246.54 35.22L247.58 34.96C247.98 36.18 248.3 37.72 248.38 38.76L247.26 39.04C247.24 38 246.92 36.44 246.54 35.22ZM245.9 40.6C247.82 40.28 250.7 39.7 253.48 39.12L253.58 40.4C250.98 40.98 248.24 41.56 246.2 42L245.9 40.6ZM252.1 34.78L253.26 35.08C252.92 36.3 252.58 37.74 252.24 38.68L251.26 38.4C251.56 37.42 251.92 35.84 252.1 34.78ZM249.22 29.64H250.54V40.54L249.22 40.76V29.64ZM249.16 24.22H249.94V24.54H250.38V24.92C249.6 26.46 248.3 28.58 246.32 30.32C246.1 30.02 245.66 29.58 245.38 29.38C247.2 27.86 248.48 25.82 249.16 24.22ZM249.4 24.22H250.52C251.72 25.26 253.22 26.76 253.94 27.76L252.94 28.9C252.24 27.92 250.86 26.26 249.68 25.28H249.4V24.22Z" fill="black"/>
<rect width="114" height="67" rx="26.8" fill="#E6E6E6"/>
<path d="M38.38 37.28H47.5V38.42H38.38V37.28ZM37.84 27.64H47.82V28.8H37.84V27.64ZM42.18 25.82H43.56V40.54H42.18V25.82ZM37.82 40.58C40.26 40.36 44 40 47.58 39.62L47.6 40.8C44.2 41.2 40.58 41.62 38.04 41.88L37.82 40.58ZM39.68 33.54V35.02H46.16V33.54H39.68ZM39.68 31.1V32.54H46.16V31.1H39.68ZM38.42 30.06H47.44V36.06H38.42V30.06ZM46.72 24.4L47.48 25.56C45.12 26.08 41.4 26.42 38.4 26.52C38.34 26.2 38.2 25.7 38.04 25.4C41.02 25.24 44.66 24.88 46.72 24.4ZM47.68 28.88H54.9V30.28H47.68V28.88ZM54.32 28.88H55.76C55.76 28.88 55.74 29.44 55.74 29.64C55.52 38.08 55.32 40.88 54.66 41.74C54.3 42.26 53.9 42.44 53.3 42.5C52.74 42.56 51.78 42.56 50.86 42.5C50.82 42.08 50.66 41.46 50.42 41.06C51.4 41.14 52.28 41.16 52.68 41.16C53 41.16 53.2 41.1 53.38 40.84C53.88 40.22 54.1 37.34 54.32 29.24V28.88ZM50.1 24.46H51.54C51.52 32.42 51.5 39.14 46.72 42.72C46.48 42.36 45.96 41.88 45.6 41.64C50.18 38.36 50.08 32.02 50.1 24.46ZM66.74 27.56H76.22V29H66.04L66.74 27.56ZM69.24 31.9H75.76V33.28H69.24V31.9ZM69.22 36.3H76.04V37.72H69.22V36.3ZM68.48 28.02H70.02V42.6H68.48V28.02ZM67.5 24.44L68.96 24.82C67.82 28 66.08 31.14 64.24 33.2C64.02 32.94 63.42 32.4 63.08 32.16C64.9 30.3 66.52 27.38 67.5 24.44ZM62.7 24.28L64.14 24.74C62.82 28.12 60.76 31.54 58.58 33.78C58.44 33.42 57.98 32.62 57.7 32.26C59.7 30.32 61.56 27.32 62.7 24.28ZM60.56 29.44L62.04 27.94L62.08 27.96V42.58H60.56V29.44Z" fill="black"/>
<rect y="81" width="114" height="67" rx="26.8" fill="#E6E6E6"/>
<path d="M28.34 108.82H45.6V110.28H28.34V108.82ZM33.7 114.12H45.08V115.56H33.7V114.12ZM31.64 121.58H45.96V123.02H31.64V121.58ZM38.2 114.76H39.72V122.4H38.2V114.76ZM34.38 105.22L35.94 105.42C34.86 111.64 33.02 118.3 28.56 122.4C28.34 122.06 27.86 121.52 27.56 121.22C31.74 117.46 33.5 111 34.38 105.22ZM48.28 108.94H65.76V110.4H48.28V108.94ZM53.26 121.04H63.32V122.5H53.26V121.04ZM52.36 114.28H64.32V123.54H62.74V115.74H53.84V123.64H52.36V114.28ZM55.22 105.2L56.8 105.5C55.5 110.96 53.2 116.42 48.62 119.66C48.4 119.32 47.94 118.78 47.62 118.48C51.98 115.5 54.16 110.26 55.22 105.2ZM69.38 105.96H72.72V107.3H69.38V105.96ZM68.78 105.96H70.04V113.06C70.04 116.14 69.88 120.6 68.76 123.62C68.52 123.4 67.96 123.06 67.64 122.94C68.7 120.06 68.78 116 68.78 113.08V105.96ZM71.88 105.96H73.14V122C73.14 122.7 73 123.1 72.6 123.34C72.16 123.56 71.56 123.58 70.6 123.58C70.54 123.26 70.36 122.64 70.18 122.28C70.84 122.32 71.42 122.3 71.6 122.3C71.8 122.3 71.88 122.24 71.88 122V105.96ZM80.84 105.96H85.04V107.28H82.14V123.62H80.84V105.96ZM84.34 105.96H85.64V118.44C85.64 119.06 85.54 119.5 85.1 119.74C84.68 119.98 84.12 120.02 83.16 120.02C83.1 119.64 82.88 119.04 82.68 118.68C83.34 118.7 83.9 118.7 84.08 118.7C84.26 118.68 84.34 118.62 84.34 118.42V105.96ZM69.38 110.7H72.68V112.04H69.38V110.7ZM69.36 115.52H72.68V116.86H69.36V115.52ZM75.34 121.02H78.88V122.28H75.34V121.02ZM77.42 106.02L78.5 105.56C79.28 106.9 80.1 108.66 80.38 109.76L79.24 110.3C78.96 109.18 78.2 107.36 77.42 106.02ZM74.6 115.6H79.58V123.16H78.3V116.9H75.86V123.44H74.6V115.6ZM75.38 105.64L76.58 105.94C76.04 107.7 75.16 109.52 74.24 110.7C74.04 110.48 73.56 110.08 73.28 109.88C74.18 108.8 74.94 107.22 75.38 105.64ZM76.38 110.32H77.12V110.62H77.54V111C76.86 112.6 75.76 114.84 74.06 116.76C73.86 116.46 73.42 116.08 73.12 115.9C74.66 114.2 75.78 112 76.38 110.32ZM76.6 110.32H77.66C78.8 111.7 80.14 113.64 80.72 114.84L79.68 115.8C79.12 114.6 77.92 112.52 76.82 111.22H76.6V110.32Z" fill="black"/>
<rect y="163" width="114" height="67" rx="26.8" fill="#E6E6E6"/>
<path d="M40.52 188.56H53.62V205.3H52.04V190.08H42.06V205.38H40.52V188.56ZM41.54 195.5H52.7V196.98H41.54V195.5ZM41.52 202.58H52.74V204.08H41.52V202.58ZM69.2 188.2H74.76V189.58H69.2V188.2ZM69.2 192.8H74.76V194.14H69.2V192.8ZM69.18 197.46H74.8V198.82H69.18V197.46ZM74.08 188.2H75.54V203.7C75.54 204.56 75.34 205.02 74.76 205.26C74.2 205.5 73.26 205.54 71.78 205.54C71.74 205.12 71.52 204.46 71.32 204.08C72.38 204.1 73.38 204.1 73.68 204.08C73.98 204.08 74.08 203.98 74.08 203.68V188.2ZM68.58 188.2H70V195.46C70 198.54 69.76 202.86 67.96 205.7C67.7 205.42 67.1 204.98 66.76 204.84C68.44 202.16 68.58 198.36 68.58 195.46V188.2ZM58.02 189.88H67.6V191.2H58.02V189.88ZM60.38 192.98H65.44V194.2H60.38V192.98ZM60.38 196.16H65.46V197.36H60.38V196.16ZM57.76 199.38H67.6V200.72H57.76V199.38ZM59.72 187.44H61.1V199.92H59.72V187.44ZM64.74 187.44H66.12V199.92H64.74V187.44ZM60.54 201.16L61.98 201.56C61.24 203.08 60.08 204.62 59 205.62C58.72 205.38 58.14 204.94 57.78 204.74C58.9 203.84 59.94 202.5 60.54 201.16ZM63.42 201.78L64.58 201.16C65.36 202.06 66.3 203.3 66.7 204.12L65.48 204.84C65.1 204.04 64.2 202.72 63.42 201.78Z" fill="black"/>
<rect y="244" width="114" height="68" rx="27.2" fill="#E6E6E6"/>
<path d="M36.72 271.26V277.76H44.12V271.26H36.72ZM35.48 270.1H45.4V278.92H35.48V270.1ZM39.88 268.16L41.52 268.46C41.1 269.38 40.6 270.32 40.22 270.94L38.98 270.64C39.3 269.92 39.7 268.88 39.88 268.16ZM38.16 279.62L39.06 278.84C40.24 279.44 41.66 280.4 42.36 281.16L41.38 282.02C40.72 281.28 39.32 280.26 38.16 279.62ZM43.02 281.5L44.14 280.94C45.18 282.28 46.1 284.08 46.44 285.32L45.24 285.9C44.92 284.66 44.02 282.84 43.02 281.5ZM37.84 281.02H39.14V284.8C39.14 285.24 39.24 285.3 39.82 285.3C40.08 285.3 41.42 285.3 41.76 285.3C42.24 285.3 42.34 285.12 42.38 283.6C42.66 283.82 43.2 284.02 43.58 284.12C43.44 286.08 43.06 286.56 41.92 286.56C41.6 286.56 39.96 286.56 39.66 286.56C38.2 286.56 37.84 286.18 37.84 284.8V281.02ZM35.9 281.32L37.1 281.62C36.82 283.26 36.36 285.02 35.28 286.04L34.16 285.4C35.16 284.46 35.66 282.86 35.9 281.32ZM40 271.42L41.04 271.56C40.44 273.02 39.48 274.54 37.86 275.72C37.68 275.5 37.34 275.2 37.08 275.06C38.58 274.02 39.54 272.62 40 271.42ZM40.1 272.34H42.8V273.2H39.66L40.1 272.34ZM42.44 272.34H42.64L42.84 272.3L43.5 272.58C42.66 275.24 40.66 276.96 38.5 277.84C38.36 277.6 38.08 277.24 37.84 277.04C39.82 276.32 41.74 274.72 42.44 272.52V272.34ZM37.2 273.5L37.94 272.8C39.9 273.68 42.28 275.16 43.48 276.2L42.72 276.98C41.54 275.88 39.2 274.38 37.2 273.5ZM30.92 268.22L32.2 268.7C31.48 270.18 30.54 271.98 29.8 273.1L28.8 272.66C29.5 271.5 30.42 269.54 30.92 268.22ZM33.04 270.5L34.28 271.06C32.96 273.28 31.12 276.12 29.68 277.84L28.78 277.36C30.2 275.58 32 272.6 33.04 270.5ZM27.72 272.36L28.52 271.4C29.58 272.38 30.8 273.74 31.32 274.64L30.48 275.74C29.98 274.78 28.78 273.36 27.72 272.36ZM32.28 275.02L33.34 274.62C34.1 275.94 34.84 277.7 35.04 278.82L33.92 279.3C33.7 278.18 33.02 276.38 32.28 275.02ZM27.56 277.06C29.22 276.98 31.6 276.86 34 276.72V278C31.74 278.14 29.46 278.28 27.72 278.4L27.56 277.06ZM32.66 279.88L33.72 279.58C34.2 280.72 34.62 282.24 34.72 283.22L33.6 283.56C33.5 282.56 33.12 281.04 32.66 279.88ZM28.76 279.64L30 279.86C29.74 281.74 29.26 283.68 28.64 284.96C28.4 284.78 27.82 284.52 27.52 284.4C28.16 283.18 28.54 281.38 28.76 279.64ZM30.78 277.64H32.08V286.6H30.78V277.64ZM55.42 270.6H65.42V271.92H55.42V270.6ZM54.56 274.48H66.28V275.82H54.56V274.48ZM54.66 278.1H66.06V279.44H54.66V278.1ZM59.62 268.2H61.1V275.3H59.62V268.2ZM62.26 275.62H63.72V284.82C63.72 285.68 63.52 286.12 62.9 286.34C62.28 286.56 61.26 286.58 59.66 286.58C59.6 286.18 59.36 285.58 59.14 285.18C60.38 285.22 61.5 285.22 61.82 285.2C62.16 285.18 62.26 285.1 62.26 284.8V275.62ZM55.88 280.84L57.08 280.12C58.12 281.16 59.24 282.58 59.72 283.56L58.42 284.36C57.98 283.38 56.9 281.88 55.88 280.84ZM49.22 269.52H54.22V282.66H49.22V281.3H52.82V270.88H49.22V269.52ZM49.28 275.34H53.48V276.68H49.28V275.34ZM48.5 269.52H49.92V284.3H48.5V269.52ZM73.94 280.46H80V281.62H73.94V280.46ZM73.88 277.44H80.7V284.74H73.88V283.58H79.28V278.62H73.88V277.44ZM73.22 277.44H74.6V285.76H73.22V277.44ZM69.54 271.9H75.1V273H69.54V271.9ZM78.76 271.9H84.42V273H78.76V271.9ZM83.8 269.06H85.3V284.62C85.3 285.58 85.08 286.08 84.44 286.34C83.8 286.58 82.72 286.6 81.04 286.6C80.98 286.18 80.74 285.48 80.52 285.06C81.74 285.12 82.96 285.1 83.32 285.08C83.68 285.08 83.8 284.96 83.8 284.62V269.06ZM69.66 269.06H76.06V275.94H69.66V274.78H74.64V270.22H69.66V269.06ZM84.54 269.06V270.22H79.3V274.82H84.54V275.96H77.86V269.06H84.54ZM68.8 269.06H70.28V286.62H68.8V269.06Z" fill="black"/>
<rect y="326" width="114" height="67" rx="26.8" fill="#E6E6E6"/>
<path d="M19.08 351.56H34.84V353.04H19.08V351.56ZM18.04 360.06H35.98V361.56H18.04V360.06ZM20.48 354.42L21.82 354C22.64 355.46 23.46 357.36 23.74 358.54L22.3 359.02C22.02 357.84 21.24 355.9 20.48 354.42ZM32.08 353.92L33.68 354.36C32.92 355.98 31.98 357.9 31.2 359.1L29.92 358.68C30.66 357.42 31.6 355.36 32.08 353.92ZM26.18 352.14H27.72V368.6H26.18V352.14ZM45.76 357.58H51.98V358.94H45.76V357.58ZM44.82 364.02C46.64 363.42 49.5 362.38 52.2 361.38L52.48 362.66C50.04 363.64 47.4 364.68 45.44 365.42L44.82 364.02ZM46.58 353.52H54.82V354.96H46.58V353.52ZM54.36 353.52H55.86C55.86 353.52 55.84 354.12 55.84 354.32C55.54 363.56 55.26 366.78 54.44 367.76C54 368.34 53.54 368.52 52.8 368.6C52.12 368.66 50.88 368.64 49.66 368.56C49.64 368.14 49.44 367.48 49.18 367.04C50.52 367.18 51.74 367.18 52.22 367.18C52.62 367.18 52.86 367.12 53.08 366.86C53.76 366.14 54.08 362.82 54.36 353.88V353.52ZM47.12 350.2L48.66 350.54C47.76 353.6 46.34 356.52 44.72 358.42C44.44 358.16 43.78 357.68 43.4 357.48C45.06 355.72 46.36 353.02 47.12 350.2ZM38.04 354.88H44.36V356.3H38.04V354.88ZM40.54 350.32H42V363.42H40.54V350.32ZM37.66 363.8C39.38 363.18 42 362.12 44.5 361.1L44.84 362.5C42.54 363.5 40.08 364.54 38.2 365.3L37.66 363.8ZM61.64 354.78H73.72V356.14H61.64V354.78ZM61.64 358.78H73.48V360.08H61.64V358.78ZM61.3 362.88H73.56V364.2H61.3V362.88ZM60.82 354.78H62.28V359.8C62.28 362.64 61.76 366.32 58.7 368.7C58.5 368.4 57.96 367.86 57.66 367.64C60.5 365.44 60.82 362.34 60.82 359.78V354.78ZM72.92 354.78H74.42V366.7C74.42 367.68 74.16 368.16 73.42 368.38C72.66 368.62 71.34 368.64 69.32 368.64C69.24 368.24 68.96 367.58 68.74 367.18C70.34 367.24 71.9 367.24 72.36 367.2C72.8 367.2 72.92 367.08 72.92 366.7V354.78ZM66.72 355.34H68.14V363.54H66.72V355.34ZM63.54 351.38H69.84V352.66H63.54V351.38ZM63.74 350.16L65.36 350.44C64.04 352.82 62.04 355.48 59.2 357.54C58.96 357.18 58.48 356.68 58.12 356.46C60.82 354.64 62.72 352.16 63.74 350.16ZM69.34 351.38H69.66L69.92 351.32L70.92 351.98C70.24 353.32 69.1 354.88 68.18 355.86C67.9 355.64 67.42 355.34 67.1 355.16C67.94 354.26 68.88 352.72 69.34 351.66V351.38ZM81.5 355.82H95.72V357.06H81.5V355.82ZM81.78 361.66H93.22V362.9H81.78V361.66ZM84.72 354.08H86.14V359.18H91.02V354.08H92.48V360.38H84.72V354.08ZM92.82 361.66H93.12L93.4 361.58L94.34 362.1C92.14 366.26 87.02 367.94 81.64 368.62C81.52 368.24 81.24 367.68 81 367.34C86.06 366.86 91 365.3 92.82 361.88V361.66ZM85.34 362.7C87.24 365.36 91.38 366.86 96.22 367.36C95.9 367.68 95.52 368.26 95.34 368.64C90.38 368 86.22 366.3 84.04 363.18L85.34 362.7ZM86.8 350.22H88.34V352.94H86.8V350.22ZM80.14 352.2H95.86V353.56H80.14V352.2ZM79.4 352.2H80.84V357.96C80.84 361.08 80.58 365.6 78.86 368.64C78.6 368.38 77.96 367.96 77.62 367.8C79.26 364.94 79.4 360.88 79.4 357.96V352.2Z" fill="black"/>
<rect y="407" width="114" height="68" rx="27.2" fill="#E6E6E6"/>
<path d="M45.9 431.26L47.46 431.54C46.66 435 45.34 438.26 43.72 440.38C43.42 440.14 42.7 439.74 42.28 439.54C43.98 437.58 45.2 434.46 45.9 431.26ZM49.2 436.16H49.96V438.84C49.96 440.62 50.94 445.92 56.38 448.26C56.1 448.62 55.64 449.24 55.4 449.6C51.2 447.68 49.5 443.54 49.18 441.66C48.84 443.56 47.02 447.58 42.18 449.6C42 449.28 41.54 448.66 41.26 448.38C47.36 445.98 48.4 440.74 48.4 438.84V436.16H49.2ZM37.74 445.48C38.9 444.4 40.72 442.56 42.42 440.78L43.24 442.08C41.76 443.68 40.08 445.42 38.72 446.72L37.74 445.48ZM38.38 433.62L39.44 432.54C40.74 433.38 42.36 434.64 43.14 435.5L42.02 436.72C41.26 435.84 39.68 434.52 38.38 433.62ZM45.94 434.82H54.94V436.3H45.26L45.94 434.82ZM54.42 434.82H54.66L54.94 434.72L56.04 435.34C55.52 437.26 54.58 439.34 53.84 440.68C53.52 440.5 52.94 440.2 52.56 440.04C53.22 438.84 54.08 436.72 54.42 435.18V434.82ZM69.74 434.92H76.2V436.32H69.74V434.92ZM70.14 431.2L71.6 431.42C71.02 435.22 70.06 438.9 68.56 441.28C68.34 441.02 67.76 440.48 67.42 440.24C68.84 438.06 69.68 434.66 70.14 431.2ZM73.68 435.66L75.1 435.8C74.28 442.44 72.52 446.86 68.18 449.66C68.04 449.34 67.6 448.72 67.34 448.42C71.4 446.02 73 441.76 73.68 435.66ZM70.48 436.18C71.24 441.66 72.9 446.42 76.3 448.44C75.96 448.72 75.5 449.26 75.26 449.62C71.72 447.3 70.06 442.36 69.2 436.38L70.48 436.18ZM62.42 431.2H63.76V441.7H62.42V431.2ZM60.44 433.48V436.82H65.9V433.48H60.44ZM59.16 432.42H67.22V437.88H59.16V432.42ZM59.96 439.82V441.12H66.36V439.82H59.96ZM58.66 438.8H67.7V442.14H58.66V438.8ZM57.8 443.42C60.5 443.42 64.7 443.36 68.76 443.28L68.7 444.42C64.72 444.52 60.58 444.58 57.84 444.62L57.8 443.42ZM61.8 441.82L63.08 442.12C62.24 443.74 61.1 445.74 60.3 447.04L59.06 446.68C59.88 445.4 61.02 443.36 61.8 441.82ZM60.2 446.32L60.94 445.42C63.28 446.22 65.74 447.36 67.2 448.34L66.24 449.28C64.86 448.3 62.52 447.16 60.2 446.32ZM65.4 443.9L66.7 444.12C65.9 447.38 63.42 448.9 58.86 449.68C58.78 449.3 58.52 448.8 58.28 448.5C62.42 448 64.66 446.72 65.4 443.9ZM57.78 434.56H59.7V434.64H66.6V434.56H68.64V435.72H66.6V435.64H59.7V435.72H57.78V434.56Z" fill="black"/>
<path d="M118 33.5H164" stroke="#E6E6E6" stroke-width="3" stroke-linecap="round" stroke-linejoin="bevel"/>
<path d="M118 196.5V196.5C130.703 196.5 141 186.203 141 173.5V56.5C141 43.7974 151.297 33.5 164 33.5V33.5" stroke="#E6E6E6" stroke-width="3" stroke-linecap="round" stroke-linejoin="bevel"/>
<path d="M118 278V278C130.703 278 141 267.703 141 255V56.5C141 43.7975 151.297 33.5 164 33.5V33.5" stroke="#E6E6E6" stroke-width="3" stroke-linecap="round" stroke-linejoin="bevel"/>
<path d="M118 359.5V359.5C130.703 359.5 141 349.203 141 336.5V56.5C141 43.7975 151.297 33.5 164 33.5V33.5" stroke="#E6E6E6" stroke-width="3" stroke-linecap="round" stroke-linejoin="bevel"/>
<path d="M118 114.5V114.5C130.703 114.5 141 104.203 141 91.5V56.5C141 43.7975 151.297 33.5 164 33.5V33.5" stroke="#E6E6E6" stroke-width="3" stroke-linecap="round" stroke-linejoin="bevel"/>
</svg>
