<svg width="283" height="217" viewBox="0 0 283 217" fill="none" xmlns="http://www.w3.org/2000/svg">
<rect y="3" width="115" height="61" rx="24.4" fill="#E6E6E6"/>
<path d="M30.16 24.94H34.22V26.32H30.16V24.94ZM30.08 29.64H33.98V31.02H30.08V29.64ZM30.06 34.44H34V35.84H30.06V34.44ZM29.5 24.94H30.8V32.12C30.8 35.22 30.62 39.64 29.3 42.6C29.04 42.36 28.46 42.04 28.12 41.92C29.4 39.1 29.5 35.08 29.5 32.12V24.94ZM33.34 24.94H34.68V40.86C34.68 41.64 34.52 42.08 34.04 42.32C33.54 42.56 32.8 42.6 31.52 42.58C31.48 42.24 31.28 41.6 31.1 41.2C31.98 41.24 32.74 41.24 32.98 41.22C33.24 41.2 33.34 41.12 33.34 40.84V24.94ZM35.5 26.1H46.38V27.4H35.5V26.1ZM40.1 24.24H41.54V31.36H40.1V24.24ZM40.12 34.22H41.46V41.24C41.46 41.9 41.34 42.22 40.86 42.42C40.38 42.6 39.62 42.6 38.48 42.6C38.4 42.28 38.22 41.8 38.04 41.48C38.86 41.5 39.6 41.5 39.82 41.5C40.06 41.48 40.12 41.42 40.12 41.2V34.22ZM39.66 26.7L40.74 27.14C39.62 28.94 37.54 30.74 35.7 31.66C35.48 31.32 35.06 30.82 34.76 30.56C36.56 29.82 38.6 28.24 39.66 26.7ZM42 26.68C43.06 28.18 45.12 29.76 46.84 30.48C46.52 30.76 46.1 31.26 45.86 31.6C44.12 30.68 42.08 28.84 40.94 27.14L42 26.68ZM35.12 40.34C36.2 39.86 37.74 39.08 39.32 38.28L39.66 39.44C38.32 40.18 36.94 40.94 35.76 41.56L35.12 40.34ZM40.86 31.78C39.74 33.22 37.7 34.82 35.6 35.78C35.44 35.44 35.12 34.92 34.88 34.6C37 33.74 39.1 32.14 40.14 30.6H41.48C42.86 32.26 45 33.68 46.98 34.38C46.72 34.72 46.38 35.24 46.18 35.62C44.3 34.78 42.12 33.3 40.86 31.78ZM36.44 35.96L37.5 35.32C38.2 35.92 38.96 36.8 39.26 37.44L38.14 38.16C37.86 37.5 37.14 36.6 36.44 35.96ZM41.52 39.1L42.38 38.2C43.74 38.92 45.46 40 46.32 40.78L45.4 41.78C44.56 41 42.86 39.86 41.52 39.1ZM44.08 35.12L45.24 35.84C44.6 36.66 43.84 37.52 43.26 38.1L42.28 37.44C42.86 36.84 43.66 35.82 44.08 35.12ZM59.32 24.3H60.8V42.6H59.32V24.3ZM54 27.38H66.28V37.94H64.82V28.76H55.42V38.08H54V27.38ZM54.94 31.52H65.48V32.86H54.94V31.52ZM55 35.66H65.54V37.04H55V35.66ZM52.78 24.28L54.2 24.72C52.88 28.12 50.82 31.5 48.66 33.74C48.5 33.4 48.08 32.6 47.8 32.26C49.78 30.32 51.66 27.32 52.78 24.28ZM50.7 29.44L52.1 28.02L52.14 28.04V42.58H50.7V29.44ZM72.48 31.92H85.7V33.22H72.48V31.92ZM71.86 35.26H86.5V36.56H71.86V35.26ZM75.48 29.96H76.88V35.94H75.48V29.96ZM74.4 35.72H75.8V41.12H74.4V35.72ZM80.9 29.96H82.32V35.88H80.9V29.96ZM70.3 25.18H71.82V31.04C71.82 34.44 71.52 39.36 69.44 42.62C69.16 42.4 68.48 42 68.12 41.86C70.12 38.7 70.3 34.24 70.3 31.04V25.18ZM71.2 25.18H85.32V30.08H71.2V28.78H83.82V26.48H71.2V25.18ZM72.1 40.94C74.08 40.68 77.1 40.2 80.06 39.72L80.12 41.02C77.36 41.52 74.44 41.98 72.34 42.34L72.1 40.94ZM79.32 35.78C80.48 38.68 83.08 40.68 86.7 41.4C86.38 41.72 85.98 42.26 85.8 42.64C82.02 41.7 79.4 39.46 78.08 36.08L79.32 35.78ZM84.3 36.68L85.42 37.46C84.34 38.32 82.88 39.16 81.74 39.74L80.78 39C81.88 38.4 83.42 37.4 84.3 36.68Z" fill="black"/>
<rect y="74" width="115" height="67" rx="26.8" fill="#E6E6E6"/>
<path d="M40.42 100.36V103.96H43.56V100.36H40.42ZM39.14 99.08H44.9V105.24H39.14V99.08ZM41.52 104.56H42.82V113.86H41.52V104.56ZM50.56 98.2H52.02V101.2H50.56V98.2ZM39.1 107.12H40.34V114.44H39.1V107.12ZM38.22 113.96C39.98 113.56 42.62 112.88 45.2 112.22L45.34 113.5C42.92 114.16 40.4 114.84 38.5 115.34L38.22 113.96ZM42.1 108.02H45.16V109.34H42.1V108.02ZM46.64 100.52H56.74V101.88H46.64V100.52ZM47.08 105H56.7V106.32H47.08V105ZM46.04 100.52H47.38V106.62C47.38 109.62 47.08 113.8 44.98 116.56C44.74 116.32 44.18 115.94 43.86 115.78C45.86 113.16 46.04 109.4 46.04 106.62V100.52ZM49.14 102.54H50.42V109.3H53.22V102.54H54.52V110.62H49.14V102.54ZM48.2 111.9L49.26 112.18C49.02 113.82 48.62 115.58 47.58 116.64L46.6 115.98C47.52 115.06 48 113.44 48.2 111.9ZM49.84 112.42L50.82 112.28C51.14 113.54 51.34 115.14 51.32 116.18L50.26 116.32C50.3 115.28 50.1 113.66 49.84 112.42ZM51.86 112.4L52.84 112.18C53.36 113.4 53.84 115 53.98 116.06L52.94 116.34C52.8 115.28 52.34 113.64 51.86 112.4ZM53.86 112.22L54.9 111.8C55.76 113.16 56.58 114.94 56.88 116.14L55.76 116.6C55.48 115.4 54.68 113.58 53.86 112.22ZM60.32 99.24H61.82V105.08C61.82 108.46 61.54 113.38 59.46 116.62C59.18 116.38 58.52 116 58.14 115.86C60.16 112.72 60.32 108.28 60.32 105.08V99.24ZM61.22 99.24H75.18V104.34H61.22V103.02H73.68V100.58H61.22V99.24ZM63.64 114.5H74.9V115.8H63.64V114.5ZM68.4 104.72H69.88V115.46H68.4V104.72ZM62.96 111.1H64.4V116.6H62.96V111.1ZM74.12 111.1H75.56V116.6H74.12V111.1ZM63.66 105.5H65.04V108.76H73.44V105.5H74.88V110.02H63.66V105.5Z" fill="black"/>
<rect y="150" width="115" height="67" rx="26.8" fill="#E6E6E6"/>
<path d="M41.44 182.3H52.62V183.44H42.96V192.62H41.44V182.3ZM52.18 182.3H53.7V190.94C53.7 191.78 53.5 192.18 52.86 192.4C52.24 192.62 51.2 192.62 49.58 192.62C49.52 192.22 49.28 191.66 49.08 191.28C50.26 191.34 51.42 191.34 51.74 191.32C52.08 191.3 52.18 191.2 52.18 190.92V182.3ZM42.54 185.14H52.68V186.26H42.54V185.14ZM39.08 175.94H44.96V177.16H39.08V175.94ZM38.58 179.86C40.2 179.62 42.58 179.22 44.96 178.82L45.02 179.96C42.8 180.4 40.56 180.82 38.8 181.14L38.58 179.86ZM42.54 188.04H52.74V189.16H42.54V188.04ZM44.08 174.2H45.58V181.62H44.08V174.2ZM54.54 175.1L55.58 176.18C53.92 176.9 51.56 177.58 49.56 178.04C49.48 177.74 49.28 177.26 49.12 176.98C51.04 176.48 53.26 175.76 54.54 175.1ZM48.48 174.2H50V179.5C50 180.06 50.16 180.14 51.06 180.14C51.44 180.14 53.6 180.14 54.16 180.14C54.84 180.14 54.98 179.92 55.04 178.44C55.38 178.68 55.98 178.88 56.38 178.98C56.22 180.92 55.78 181.46 54.3 181.46C53.86 181.46 51.28 181.46 50.9 181.46C48.96 181.46 48.48 181.04 48.48 179.48V174.2ZM60.32 175.24H61.82V181.08C61.82 184.46 61.54 189.38 59.46 192.62C59.18 192.38 58.52 192 58.14 191.86C60.16 188.72 60.32 184.28 60.32 181.08V175.24ZM61.22 175.24H75.18V180.34H61.22V179.02H73.68V176.58H61.22V175.24ZM63.64 190.5H74.9V191.8H63.64V190.5ZM68.4 180.72H69.88V191.46H68.4V180.72ZM62.96 187.1H64.4V192.6H62.96V187.1ZM74.12 187.1H75.56V192.6H74.12V187.1ZM63.66 181.5H65.04V184.76H73.44V181.5H74.88V186.02H63.66V181.5Z" fill="black"/>
<rect x="169" width="114" height="67" rx="26.8" fill="#E6E6E6"/>
<path d="M188.44 32.4H194.48V33.62H188.44V32.4ZM187.62 26.3H194.16V27.62H187.62V26.3ZM186.82 29.58H196.52V30.9H186.82V29.58ZM190.26 24.2H191.68V30.28H190.26V24.2ZM195.58 24.66L196.98 25.08C194.96 30.04 191.66 33.8 187.48 36.18C187.26 35.88 186.72 35.3 186.4 35.04C190.58 32.9 193.78 29.28 195.58 24.66ZM191.06 35.08H192.48V41C192.48 41.78 192.32 42.16 191.78 42.38C191.22 42.58 190.36 42.6 189.08 42.6C189 42.22 188.8 41.66 188.6 41.28C189.6 41.3 190.44 41.3 190.72 41.3C191 41.28 191.06 41.22 191.06 41V35.08ZM194.18 32.4H194.48L194.76 32.32L195.64 32.96C194.7 34.12 193.32 35.36 192.14 36.14C191.96 35.88 191.6 35.54 191.36 35.34C192.38 34.66 193.58 33.5 194.18 32.64V32.4ZM186.72 37.3C189.16 37.08 192.96 36.7 196.6 36.3V37.62C193.12 38 189.44 38.4 186.9 38.68L186.72 37.3ZM198.08 27.94H205.2V29.34H198.08V27.94ZM198.62 24.2L200.12 24.44C199.44 28.2 198.24 31.76 196.58 34.04C196.32 33.78 195.68 33.26 195.34 33.02C196.96 30.94 198.02 27.64 198.62 24.2ZM202.46 28.7L203.98 28.86C203.02 35.78 200.9 40.06 195.86 42.66C195.7 42.32 195.26 41.64 194.96 41.32C199.72 39.08 201.64 35.06 202.46 28.7ZM198.84 29.12C199.72 34.64 201.62 39.38 205.36 41.34C205 41.64 204.52 42.22 204.3 42.62C200.38 40.32 198.48 35.42 197.48 29.34L198.84 29.12ZM218.72 35.6H220.14V42.6H218.72V35.6ZM213.92 26.22H224.9V27.54H213.92V26.22ZM215.9 33.22V34.98H223.06V33.22H215.9ZM215.9 30.36V32.12H223.06V30.36H215.9ZM214.54 29.22H224.46V36.12H214.54V29.22ZM220.36 35.4C221.5 37.38 223.7 39.56 225.62 40.62C225.26 40.88 224.82 41.38 224.58 41.76C222.66 40.5 220.48 38.08 219.26 35.84L220.36 35.4ZM218.44 35.46L219.62 35.88C218.36 38.34 216.08 40.7 213.9 41.92C213.66 41.56 213.2 41.04 212.88 40.76C215.02 39.74 217.28 37.6 218.44 35.46ZM218.72 24.22H220.14V29.88H220.08V35.74H218.78V29.88H218.72V24.22ZM209.92 24.22L211.24 24.72C210.48 26.2 209.54 28 208.76 29.1L207.74 28.66C208.46 27.5 209.4 25.54 209.92 24.22ZM212.16 26.5L213.42 27.08C212.04 29.3 210.1 32.14 208.6 33.88L207.68 33.36C209.18 31.58 211.06 28.6 212.16 26.5ZM206.72 28.38L207.52 27.42C208.6 28.4 209.82 29.74 210.34 30.66L209.48 31.78C208.98 30.82 207.78 29.4 206.72 28.38ZM211.38 31.08L212.46 30.62C213.3 31.94 214.12 33.66 214.4 34.76L213.22 35.3C212.96 34.18 212.18 32.4 211.38 31.08ZM206.56 33.06C208.3 32.98 210.8 32.86 213.32 32.72V33.98C210.94 34.14 208.54 34.28 206.72 34.4L206.56 33.06ZM211.94 35.9L213.04 35.56C213.54 36.68 213.96 38.14 214.08 39.08L212.92 39.46C212.82 38.5 212.4 37 211.94 35.9ZM207.76 35.64L209.02 35.86C208.76 37.76 208.3 39.68 207.66 40.96C207.42 40.8 206.82 40.54 206.52 40.4C207.16 39.18 207.54 37.38 207.76 35.64ZM209.88 33.64H211.2V42.6H209.88V33.64ZM227.38 37.28H236.5V38.42H227.38V37.28ZM226.84 27.64H236.82V28.8H226.84V27.64ZM231.18 25.82H232.56V40.54H231.18V25.82ZM226.82 40.58C229.26 40.36 233 40 236.58 39.62L236.6 40.8C233.2 41.2 229.58 41.62 227.04 41.88L226.82 40.58ZM228.68 33.54V35.02H235.16V33.54H228.68ZM228.68 31.1V32.54H235.16V31.1H228.68ZM227.42 30.06H236.44V36.06H227.42V30.06ZM235.72 24.4L236.48 25.56C234.12 26.08 230.4 26.42 227.4 26.52C227.34 26.2 227.2 25.7 227.04 25.4C230.02 25.24 233.66 24.88 235.72 24.4ZM236.68 28.88H243.9V30.28H236.68V28.88ZM243.32 28.88H244.76C244.76 28.88 244.74 29.44 244.74 29.64C244.52 38.08 244.32 40.88 243.66 41.74C243.3 42.26 242.9 42.44 242.3 42.5C241.74 42.56 240.78 42.56 239.86 42.5C239.82 42.08 239.66 41.46 239.42 41.06C240.4 41.14 241.28 41.16 241.68 41.16C242 41.16 242.2 41.1 242.38 40.84C242.88 40.22 243.1 37.34 243.32 29.24V28.88ZM239.1 24.46H240.54C240.52 32.42 240.5 39.14 235.72 42.72C235.48 42.36 234.96 41.88 234.6 41.64C239.18 38.36 239.08 32.02 239.1 24.46ZM255.22 35.62H256.62V39.64H255.22V35.62ZM247.02 40.96H265V42.04H247.02V40.96ZM247.06 27.4H264.94V28.34H247.06V27.4ZM247.02 33.4H265V34.46H247.02V33.4ZM248.56 31.42H263.56V32.36H248.56V31.42ZM249.18 25.44H262.76V30.38H249.06V29.44H261.26V26.38H249.18V25.44ZM255.16 24.2H256.68V33.82H255.16V24.2ZM250.78 38.08V39.14H261.28V38.08H250.78ZM250.78 36.22V37.24H261.28V36.22H250.78ZM249.3 35.32H262.8V40.02H249.3V35.32Z" fill="black"/>
<path d="M119 33.5H165" stroke="#E6E6E6" stroke-width="3" stroke-linecap="round" stroke-linejoin="bevel"/>
<path d="M119 107.5V107.5C131.703 107.5 142 97.2025 142 84.5V56.5C142 43.7975 152.297 33.5 165 33.5V33.5" stroke="#E6E6E6" stroke-width="3" stroke-linecap="round" stroke-linejoin="bevel"/>
<path d="M119 183.5V183.5C131.703 183.5 142 173.203 142 160.5V56.5C142 43.7974 152.297 33.5 165 33.5V33.5" stroke="#E6E6E6" stroke-width="3" stroke-linecap="round" stroke-linejoin="bevel"/>
</svg>
